<?xml version="1.0" encoding="UTF-8"?>
<svg id="Layer_1" data-name="Layer 1" xmlns="http://www.w3.org/2000/svg"
     viewBox="0 0 644.53 99.09">
    <defs>
        <style>
            .cls-1 {
            clip-path: url(#clippath-2);
            }

            .cls-2 {
            fill: #00aeef;
            }

            .cls-3 {
            clip-path: url(#clippath-1);
            }

            .cls-4 {
            clip-path: url(#clippath);
            }

            .cls-5 {
            fill: none;
            }

            .cls-6 {
            clip-path: url(#clippath-3);
            }

            .cls-7 {
            fill: #ed1c24;
            }

            .cls-8 {
            fill: #231f20;
            }
        </style>
        <clipPath id="clippath">
            <path class="cls-5"
                  d="m14.79,64.33c.02,2.13.04,4.55.04,7.24,0,3.14.14,5.2.42,6.19.28.96.97,2.12,2.07,3.48-1.83-.54-3.13-1.5-3.9-2.88-.77-1.36-1.16-3.69-1.16-7v-8.58c0-4.17-.52-7.05-1.55-8.65-1.03-1.59-2.79-2.99-5.27-4.18v-.81c2.41-1.15,4.16-2.53,5.24-4.15,1.05-1.59,1.58-4.51,1.58-8.75l-.04-4.18c0-5.81.34-9.47,1.02-10.97.68-1.5,2.04-2.58,4.08-3.23-1.03,1.24-1.71,2.37-2.04,3.38-.3.94-.46,3.04-.46,6.29,0,7.38-.14,12.05-.42,13.99-.28,1.95-.87,3.49-1.76,4.64-.87,1.12-2.45,2.25-4.75,3.38,2.93,1.48,4.8,3.08,5.62,4.82.77,1.71,1.2,5.04,1.27,9.98Zm5.24-37.51c0,8.06-.08,13.09-.25,15.08-.16,2.13-.77,3.73-1.83,4.78-1.03,1.08-2.65,1.73-4.85,1.97,1.36-.7,2.32-1.48,2.88-2.32.52-.82.9-1.62,1.16-2.39.21-.75.32-3.27.32-7.56,0-6.45.11-10.72.32-12.83.21-2.09,1.07-3.91,2.57-5.48,1.52-1.55,3.26-2.32,5.2-2.32.3,0,.56.01.77.04v.74c-2.16.56-3.73,1.61-4.71,3.13-1.01,1.55-1.54,3.94-1.58,7.17Zm0,39.16c0,5.23.09,8.62.28,10.2.16,1.45.77,2.78,1.83,3.97,1.01,1.15,2.4,1.96,4.18,2.43v.74c-1.97,0-3.7-.54-5.2-1.62-1.55-1.08-2.54-2.61-2.99-4.61-.49-1.99-.74-5.86-.74-11.6,0-.59.02-1.51.07-2.78.02-.49.04-1.24.04-2.25,0-3.16-.32-5.39-.95-6.68-.68-1.34-1.83-2.45-3.45-3.34,2.37.16,4.02.83,4.96,2,.96,1.17,1.51,2.44,1.65,3.8.14,1.36.25,4.61.32,9.74Z"/>
        </clipPath>
        <clipPath id="clippath-1">
            <path class="cls-5"
                  d="m35.21,26.82c-.07-3.23-.6-5.62-1.58-7.17-1.03-1.52-2.6-2.57-4.71-3.13v-.74c1.95,0,3.67.53,5.17,1.58,1.52,1.1,2.53,2.65,3.02,4.64.47,2.06.7,5.93.7,11.6,0,1.22-.01,2.14-.04,2.78-.02.49-.04,1.24-.04,2.25,0,3.14.32,5.37.95,6.68.63,1.31,1.78,2.43,3.45,3.34-2.3-.16-3.93-.82-4.89-1.97-.94-1.08-1.51-2.32-1.72-3.73-.21-1.38-.32-6.76-.32-16.14Zm0,39.16c.07-5.13.18-8.38.32-9.74.14-1.36.69-2.62,1.65-3.8.96-1.17,2.61-1.84,4.96-2-1.41.73-2.37,1.5-2.88,2.32-.54.87-.91,1.66-1.12,2.39-.12.4-.21,1.32-.26,2.76-.06,1.44-.09,3.04-.09,4.8,0,6.47-.11,10.73-.32,12.8-.26,2.13-1.12,3.96-2.6,5.48-1.5,1.57-3.23,2.36-5.2,2.36-.28,0-.53-.01-.74-.04v-.74c1.78-.47,3.16-1.27,4.15-2.39,1.03-1.17,1.65-2.52,1.86-4.04.19-1.64.28-5.03.28-10.16Zm5.24-1.65c.07-4.99.5-8.33,1.3-10.02.8-1.71,2.66-3.3,5.59-4.78-2.67-1.29-4.38-2.6-5.13-3.94-.8-1.31-1.3-2.91-1.51-4.78-.21-1.88-.32-6.3-.32-13.29,0-3.14-.14-5.2-.42-6.19-.28-1.01-.96-2.17-2.04-3.48,2.04.68,3.4,1.76,4.08,3.23.68,1.5,1.02,5.16,1.02,10.97l-.04,4.18c0,4.2.52,7.09,1.55,8.68,1.03,1.62,2.79,3.02,5.27,4.22v.81c-2.41,1.15-4.16,2.53-5.24,4.15-1.05,1.57-1.58,4.46-1.58,8.68l.04,4.39c0,5.74-.33,9.34-.98,10.79-.66,1.52-2.03,2.61-4.11,3.27,1.03-1.27,1.7-2.39,2-3.38.3-.94.46-3.04.46-6.29,0-1.22.01-2.38.04-3.48.02-1.1.04-2.36.04-3.76Z"/>
        </clipPath>
        <clipPath id="clippath-2">
            <path class="cls-5"
                  d="m14.79,64.35c.02,2.13.04,4.55.04,7.24,0,3.14.14,5.2.42,6.19.28.96.97,2.12,2.07,3.48-1.83-.54-3.13-1.5-3.9-2.88-.77-1.36-1.16-3.69-1.16-7v-8.58c0-4.17-.52-7.05-1.55-8.65-1.03-1.59-2.79-2.99-5.27-4.18v-.81c2.41-1.15,4.16-2.53,5.24-4.15,1.05-1.59,1.58-4.51,1.58-8.75l-.04-4.18c0-5.81.34-9.47,1.02-10.97.68-1.5,2.04-2.58,4.08-3.23-1.03,1.24-1.71,2.37-2.04,3.38-.3.94-.46,3.04-.46,6.29,0,7.38-.14,12.05-.42,13.99-.28,1.95-.87,3.49-1.76,4.64-.87,1.12-2.45,2.25-4.75,3.38,2.93,1.48,4.8,3.08,5.62,4.82.77,1.71,1.2,5.04,1.27,9.98Zm5.24-37.51c0,8.06-.08,13.09-.25,15.08-.16,2.13-.77,3.73-1.83,4.78-1.03,1.08-2.65,1.73-4.85,1.97,1.36-.7,2.32-1.48,2.88-2.32.52-.82.9-1.62,1.16-2.39.21-.75.32-3.27.32-7.56,0-6.45.11-10.72.32-12.83.21-2.09,1.07-3.91,2.57-5.48,1.52-1.55,3.26-2.32,5.2-2.32.3,0,.56.01.77.04v.74c-2.16.56-3.73,1.61-4.71,3.13-1.01,1.55-1.54,3.94-1.58,7.17Zm0,39.16c0,5.23.09,8.62.28,10.2.16,1.45.77,2.78,1.83,3.97,1.01,1.15,2.4,1.96,4.18,2.43v.74c-1.97,0-3.7-.54-5.2-1.62-1.55-1.08-2.54-2.61-2.99-4.61-.49-1.99-.74-5.86-.74-11.6,0-.59.02-1.51.07-2.78.02-.49.04-1.24.04-2.25,0-3.16-.32-5.39-.95-6.68-.68-1.34-1.83-2.45-3.45-3.34,2.37.16,4.02.83,4.96,2,.96,1.17,1.51,2.44,1.65,3.8.14,1.36.25,4.61.32,9.74Z"/>
        </clipPath>
        <clipPath id="clippath-3">
            <path class="cls-5"
                  d="m35.21,26.82c-.07-3.23-.6-5.62-1.58-7.17-1.03-1.52-2.6-2.57-4.71-3.13v-.74c1.95,0,3.67.53,5.17,1.58,1.52,1.1,2.53,2.65,3.02,4.64.47,2.06.7,5.93.7,11.6,0,1.22-.01,2.14-.04,2.78-.02.49-.04,1.24-.04,2.25,0,3.14.32,5.37.95,6.68.63,1.31,1.78,2.43,3.45,3.34-2.3-.16-3.93-.82-4.89-1.97-.94-1.08-1.51-2.32-1.72-3.73-.21-1.38-.32-6.76-.32-16.14Zm0,39.16c.07-5.13.18-8.38.32-9.74.14-1.36.69-2.62,1.65-3.8.96-1.17,2.61-1.84,4.96-2-1.41.73-2.37,1.5-2.88,2.32-.54.87-.91,1.66-1.12,2.39-.12.4-.21,1.32-.26,2.76-.06,1.44-.09,3.04-.09,4.8,0,6.47-.11,10.73-.32,12.8-.26,2.13-1.12,3.96-2.6,5.48-1.5,1.57-3.23,2.36-5.2,2.36-.28,0-.53-.01-.74-.04v-.74c1.78-.47,3.16-1.27,4.15-2.39,1.03-1.17,1.65-2.52,1.86-4.04.19-1.64.28-5.03.28-10.16Zm5.24-1.65c.07-4.99.5-8.33,1.3-10.02.8-1.71,2.66-3.3,5.59-4.78-2.67-1.29-4.38-2.6-5.13-3.94-.8-1.31-1.3-2.91-1.51-4.78-.21-1.88-.32-6.3-.32-13.29,0-3.14-.14-5.2-.42-6.19-.28-1.01-.96-2.17-2.04-3.48,2.04.68,3.4,1.76,4.08,3.23.68,1.5,1.02,5.16,1.02,10.97l-.04,4.18c0,4.2.52,7.09,1.55,8.68,1.03,1.62,2.79,3.02,5.27,4.22v.81c-2.41,1.15-4.16,2.53-5.24,4.15-1.05,1.57-1.58,4.46-1.58,8.68l.04,4.39c0,5.74-.33,9.34-.98,10.79-.66,1.52-2.03,2.61-4.11,3.27,1.03-1.27,1.7-2.39,2-3.38.3-.94.46-3.04.46-6.29,0-1.22.01-2.38.04-3.48.02-1.1.04-2.36.04-3.76Z"/>
        </clipPath>
    </defs>
    <g>
        <path class="cls-8"
              d="m74.33,75.77V25.36h13.92c17.77,0,26.65,8.19,26.65,24.57,0,7.78-2.47,14.03-7.4,18.76-4.93,4.72-11.54,7.08-19.81,7.08h-13.36Zm5.91-45.07v39.73h7.52c6.61,0,11.75-1.77,15.43-5.31,3.68-3.54,5.52-8.55,5.52-15.05,0-12.91-6.87-19.37-20.6-19.37h-7.88Z"/>
        <path class="cls-8"
              d="m152.97,59.21h-25.42c.09,4.01,1.17,7.1,3.23,9.28,2.06,2.18,4.9,3.27,8.51,3.27,4.05,0,7.78-1.34,11.18-4.01v5.41c-3.16,2.3-7.35,3.45-12.55,3.45s-9.08-1.63-11.99-4.9c-2.91-3.27-4.36-7.87-4.36-13.8,0-5.6,1.59-10.17,4.76-13.69,3.18-3.53,7.12-5.29,11.83-5.29s8.35,1.52,10.93,4.57c2.58,3.05,3.87,7.28,3.87,12.69v3.02Zm-5.91-4.89c-.02-3.33-.83-5.92-2.41-7.77-1.58-1.85-3.78-2.78-6.59-2.78s-5.03.97-6.93,2.92c-1.9,1.95-3.07,4.49-3.52,7.63h19.44Z"/>
        <path class="cls-8"
              d="m162.47,75.77V25.36h13.92c17.77,0,26.65,8.19,26.65,24.57,0,7.78-2.47,14.03-7.4,18.76-4.93,4.72-11.54,7.08-19.81,7.08h-13.36Zm5.91-45.07v39.73h7.52c6.61,0,11.75-1.77,15.43-5.31,3.68-3.54,5.52-8.55,5.52-15.05,0-12.91-6.87-19.37-20.6-19.37h-7.88Z"/>
        <path class="cls-8"
              d="m241.29,75.77h-5.77v-5.7h-.14c-2.39,4.36-6.09,6.54-11.11,6.54-8.58,0-12.87-5.11-12.87-15.33v-21.52h5.73v20.6c0,7.59,2.91,11.39,8.72,11.39,2.81,0,5.13-1.04,6.94-3.11,1.82-2.07,2.72-4.79,2.72-8.14v-20.74h5.77v36Z"/>
        <path class="cls-8"
              d="m258.83,70.57h-.14v21.76h-5.77v-52.56h5.77v6.33h.14c2.84-4.78,6.98-7.17,12.45-7.17,4.64,0,8.26,1.61,10.86,4.83,2.6,3.22,3.9,7.54,3.9,12.96,0,6.02-1.46,10.85-4.39,14.47-2.93,3.62-6.94,5.43-12.02,5.43-4.66,0-8.26-2.02-10.79-6.05Zm-.14-14.52v5.03c0,2.98.97,5.5,2.9,7.58,1.93,2.07,4.39,3.11,7.37,3.11,3.49,0,6.23-1.34,8.21-4.01,1.98-2.67,2.97-6.39,2.97-11.15,0-4.01-.93-7.15-2.78-9.42-1.85-2.27-4.36-3.41-7.52-3.41-3.35,0-6.05,1.17-8.09,3.5-2.04,2.33-3.06,5.26-3.06,8.77Z"/>
        <path class="cls-8" d="m301.02,75.77h-5.77V22.47h5.77v53.3Z"/>
        <path class="cls-8"
              d="m315.64,30.63c-1.03,0-1.91-.35-2.64-1.05-.73-.7-1.09-1.59-1.09-2.67s.36-1.97,1.09-2.69c.73-.71,1.6-1.07,2.64-1.07s1.95.36,2.69,1.07c.74.72,1.11,1.61,1.11,2.69s-.37,1.91-1.11,2.64c-.74.73-1.63,1.09-2.69,1.09Zm2.81,45.14h-5.77v-36h5.77v36Z"/>
        <path class="cls-8"
              d="m354.67,74.12c-2.77,1.66-6.05,2.5-9.84,2.5-5.13,0-9.28-1.67-12.43-5.01-3.15-3.34-4.73-7.67-4.73-12.99,0-5.93,1.7-10.69,5.1-14.29,3.4-3.6,7.93-5.4,13.61-5.4,3.16,0,5.95.59,8.37,1.76v5.91c-2.67-1.88-5.53-2.81-8.58-2.81-3.68,0-6.7,1.32-9.05,3.96s-3.53,6.1-3.53,10.39,1.11,7.55,3.32,9.98c2.21,2.44,5.19,3.66,8.91,3.66,3.14,0,6.09-1.04,8.86-3.13v5.48Z"/>
        <path class="cls-8"
              d="m389.15,75.77h-5.77v-5.62h-.14c-2.51,4.31-6.2,6.47-11.07,6.47-3.59,0-6.39-.95-8.42-2.85-2.03-1.9-3.04-4.42-3.04-7.56,0-6.73,3.96-10.64,11.88-11.74l10.79-1.51c0-6.12-2.47-9.18-7.42-9.18-4.34,0-8.25,1.48-11.74,4.43v-5.91c3.54-2.25,7.62-3.38,12.23-3.38,8.46,0,12.69,4.48,12.69,13.43v23.41Zm-5.77-18.21l-8.68,1.2c-2.67.38-4.69,1.04-6.05,1.99-1.36.95-2.04,2.63-2.04,5.04,0,1.76.63,3.19,1.88,4.31,1.25,1.11,2.92,1.67,5.01,1.67,2.86,0,5.22-1,7.08-3.01,1.86-2,2.79-4.54,2.79-7.61v-3.59Z"/>
        <path class="cls-8"
              d="m416.72,75.42c-1.36.75-3.15,1.12-5.38,1.12-6.31,0-9.46-3.52-9.46-10.55v-21.3h-6.19v-4.92h6.19v-8.79l5.77-1.86v10.65h9.07v4.92h-9.07v20.29c0,2.41.41,4.14,1.23,5.17.82,1.03,2.18,1.55,4.08,1.55,1.45,0,2.71-.4,3.76-1.2v4.92Z"/>
        <path class="cls-8"
              d="m427.37,30.63c-1.03,0-1.91-.35-2.64-1.05-.73-.7-1.09-1.59-1.09-2.67s.36-1.97,1.09-2.69c.73-.71,1.6-1.07,2.64-1.07s1.95.36,2.69,1.07c.74.72,1.11,1.61,1.11,2.69s-.37,1.91-1.11,2.64c-.74.73-1.63,1.09-2.69,1.09Zm2.81,45.14h-5.77v-36h5.77v36Z"/>
        <path class="cls-8"
              d="m456.9,76.62c-5.32,0-9.57-1.68-12.74-5.04-3.18-3.36-4.76-7.82-4.76-13.38,0-6.05,1.65-10.77,4.96-14.17,3.3-3.4,7.77-5.1,13.39-5.1s9.56,1.65,12.57,4.96c3.01,3.3,4.52,7.89,4.52,13.75s-1.62,10.34-4.87,13.8c-3.25,3.46-7.6,5.19-13.06,5.19Zm.42-32.84c-3.7,0-6.63,1.26-8.79,3.78-2.16,2.52-3.23,5.99-3.23,10.42s1.09,7.63,3.27,10.09c2.18,2.46,5.1,3.69,8.75,3.69s6.59-1.21,8.6-3.62,3.01-5.85,3.01-10.3-1-7.97-3.01-10.41c-2-2.44-4.87-3.66-8.6-3.66Z"/>
        <path class="cls-8"
              d="m513.92,75.77h-5.77v-20.53c0-7.64-2.79-11.46-8.37-11.46-2.88,0-5.27,1.08-7.15,3.25-1.89,2.17-2.83,4.9-2.83,8.21v20.53h-5.77v-36h5.77v5.98h.14c2.72-4.55,6.66-6.82,11.81-6.82,3.94,0,6.95,1.27,9.04,3.81,2.09,2.54,3.13,6.22,3.13,11.02v22.01Z"/>
        <path class="cls-8"
              d="m525.56,75.77V25.36h13.92c17.77,0,26.65,8.19,26.65,24.57,0,7.78-2.47,14.03-7.4,18.76-4.93,4.72-11.54,7.08-19.81,7.08h-13.36Zm5.91-45.07v39.73h7.52c6.61,0,11.75-1.77,15.43-5.31,3.68-3.54,5.52-8.55,5.52-15.05,0-12.91-6.87-19.37-20.6-19.37h-7.88Z"/>
        <path class="cls-8"
              d="m578.23,30.63c-1.03,0-1.91-.35-2.64-1.05s-1.09-1.59-1.09-2.67.36-1.97,1.09-2.69c.73-.71,1.61-1.07,2.64-1.07s1.95.36,2.69,1.07c.74.72,1.11,1.61,1.11,2.69s-.37,1.91-1.11,2.64c-.74.73-1.63,1.09-2.69,1.09Zm2.81,45.14h-5.77v-36h5.77v36Z"/>
        <path class="cls-8"
              d="m617.25,74.12c-2.77,1.66-6.05,2.5-9.84,2.5-5.13,0-9.28-1.67-12.43-5.01s-4.73-7.67-4.73-12.99c0-5.93,1.7-10.69,5.1-14.29,3.4-3.6,7.93-5.4,13.61-5.4,3.16,0,5.95.59,8.37,1.76v5.91c-2.67-1.88-5.53-2.81-8.58-2.81-3.68,0-6.7,1.32-9.05,3.96s-3.53,6.1-3.53,10.39,1.11,7.55,3.32,9.98c2.21,2.44,5.19,3.66,8.91,3.66,3.14,0,6.09-1.04,8.86-3.13v5.48Z"/>
        <path class="cls-8"
              d="m642.67,75.42c-1.36.75-3.15,1.12-5.38,1.12-6.3,0-9.46-3.52-9.46-10.55v-21.3h-6.19v-4.92h6.19v-8.79l5.77-1.86v10.65h9.07v4.92h-9.07v20.29c0,2.41.41,4.14,1.23,5.17s2.18,1.55,4.08,1.55c1.45,0,2.71-.4,3.76-1.2v4.92Z"/>
    </g>
    <g>
        <path class="cls-8"
              d="m14.79,64.33c.02,2.13.04,4.55.04,7.24,0,3.14.14,5.2.42,6.19.28.96.97,2.12,2.07,3.48-1.83-.54-3.13-1.5-3.9-2.88-.77-1.36-1.16-3.69-1.16-7v-8.58c0-4.17-.52-7.05-1.55-8.65-1.03-1.59-2.79-2.99-5.27-4.18v-.81c2.41-1.15,4.16-2.53,5.24-4.15,1.05-1.59,1.58-4.51,1.58-8.75l-.04-4.18c0-5.81.34-9.47,1.02-10.97.68-1.5,2.04-2.58,4.08-3.23-1.03,1.24-1.71,2.37-2.04,3.38-.3.94-.46,3.04-.46,6.29,0,7.38-.14,12.05-.42,13.99-.28,1.95-.87,3.49-1.76,4.64-.87,1.12-2.45,2.25-4.75,3.38,2.93,1.48,4.8,3.08,5.62,4.82.77,1.71,1.2,5.04,1.27,9.98Zm5.24-37.51c0,8.06-.08,13.09-.25,15.08-.16,2.13-.77,3.73-1.83,4.78-1.03,1.08-2.65,1.73-4.85,1.97,1.36-.7,2.32-1.48,2.88-2.32.52-.82.9-1.62,1.16-2.39.21-.75.32-3.27.32-7.56,0-6.45.11-10.72.32-12.83.21-2.09,1.07-3.91,2.57-5.48,1.52-1.55,3.26-2.32,5.2-2.32.3,0,.56.01.77.04v.74c-2.16.56-3.73,1.61-4.71,3.13-1.01,1.55-1.54,3.94-1.58,7.17Zm0,39.16c0,5.23.09,8.62.28,10.2.16,1.45.77,2.78,1.83,3.97,1.01,1.15,2.4,1.96,4.18,2.43v.74c-1.97,0-3.7-.54-5.2-1.62-1.55-1.08-2.54-2.61-2.99-4.61-.49-1.99-.74-5.86-.74-11.6,0-.59.02-1.51.07-2.78.02-.49.04-1.24.04-2.25,0-3.16-.32-5.39-.95-6.68-.68-1.34-1.83-2.45-3.45-3.34,2.37.16,4.02.83,4.96,2,.96,1.17,1.51,2.44,1.65,3.8.14,1.36.25,4.61.32,9.74Z"/>
        <path class="cls-8"
              d="m35.21,26.82c-.07-3.23-.6-5.62-1.58-7.17-1.03-1.52-2.6-2.57-4.71-3.13v-.74c1.95,0,3.67.53,5.17,1.58,1.52,1.1,2.53,2.65,3.02,4.64.47,2.06.7,5.93.7,11.6,0,1.22-.01,2.14-.04,2.78-.02.49-.04,1.24-.04,2.25,0,3.14.32,5.37.95,6.68.63,1.31,1.78,2.43,3.45,3.34-2.3-.16-3.93-.82-4.89-1.97-.94-1.08-1.51-2.32-1.72-3.73-.21-1.38-.32-6.76-.32-16.14Zm0,39.16c.07-5.13.18-8.38.32-9.74.14-1.36.69-2.62,1.65-3.8.96-1.17,2.61-1.84,4.96-2-1.41.73-2.37,1.5-2.88,2.32-.54.87-.91,1.66-1.12,2.39-.12.4-.21,1.32-.26,2.76-.06,1.44-.09,3.04-.09,4.8,0,6.47-.11,10.73-.32,12.8-.26,2.13-1.12,3.96-2.6,5.48-1.5,1.57-3.23,2.36-5.2,2.36-.28,0-.53-.01-.74-.04v-.74c1.78-.47,3.16-1.27,4.15-2.39,1.03-1.17,1.65-2.52,1.86-4.04.19-1.64.28-5.03.28-10.16Zm5.24-1.65c.07-4.99.5-8.33,1.3-10.02.8-1.71,2.66-3.3,5.59-4.78-2.67-1.29-4.38-2.6-5.13-3.94-.8-1.31-1.3-2.91-1.51-4.78-.21-1.88-.32-6.3-.32-13.29,0-3.14-.14-5.2-.42-6.19-.28-1.01-.96-2.17-2.04-3.48,2.04.68,3.4,1.76,4.08,3.23.68,1.5,1.02,5.16,1.02,10.97l-.04,4.18c0,4.2.52,7.09,1.55,8.68,1.03,1.62,2.79,3.02,5.27,4.22v.81c-2.41,1.15-4.16,2.53-5.24,4.15-1.05,1.57-1.58,4.46-1.58,8.68l.04,4.39c0,5.74-.33,9.34-.98,10.79-.66,1.52-2.03,2.61-4.11,3.27,1.03-1.27,1.7-2.39,2-3.38.3-.94.46-3.04.46-6.29,0-1.22.01-2.38.04-3.48.02-1.1.04-2.36.04-3.76Z"/>
        <g class="cls-4">
            <rect class="cls-7" x="-25.39" y="44.97" width="106.03" height="9.16"
                  transform="translate(-29.04 52.32) rotate(-63.67)"/>
        </g>
        <g class="cls-3">
            <rect class="cls-7" x="-25.39" y="44.97" width="106.03" height="9.16"
                  transform="translate(-29.04 52.32) rotate(-63.67)"/>
        </g>
        <g class="cls-1">
            <rect class="cls-2" x="-25.39" y="44.97" width="106.03" height="9.16"
                  transform="translate(-4.53 96.28) rotate(-116.33)"/>
        </g>
        <g class="cls-6">
            <rect class="cls-2" x="-25.39" y="44.97" width="106.03" height="9.16"
                  transform="translate(-4.53 96.28) rotate(-116.33)"/>
        </g>
    </g>
</svg>