<?xml version="1.0" encoding="UTF-8"?>
<svg id="Layer_1" data-name="Layer 1" xmlns="http://www.w3.org/2000/svg"
     viewBox="0 0 55.24 99.09">
    <defs>
        <style>
            .cls-1 {
            fill: #fff;
            }

            .cls-2 {
            clip-path: url(#clippath-2);
            }

            .cls-3 {
            fill: #00aeef;
            }

            .cls-4 {
            clip-path: url(#clippath-1);
            }

            .cls-5 {
            clip-path: url(#clippath);
            }

            .cls-6 {
            fill: none;
            }

            .cls-7 {
            clip-path: url(#clippath-3);
            }

            .cls-8 {
            fill: #ed1c24;
            }
        </style>
        <clipPath id="clippath">
            <path class="cls-6"
                  d="m14.79,64.33c.02,2.13.04,4.55.04,7.24,0,3.14.14,5.2.42,6.19.28.96.97,2.12,2.07,3.48-1.83-.54-3.13-1.5-3.9-2.88-.77-1.36-1.16-3.69-1.16-7v-8.58c0-4.17-.52-7.05-1.55-8.65-1.03-1.59-2.79-2.99-5.27-4.18v-.81c2.41-1.15,4.16-2.53,5.24-4.15,1.05-1.59,1.58-4.51,1.58-8.75l-.04-4.18c0-5.81.34-9.47,1.02-10.97.68-1.5,2.04-2.58,4.08-3.23-1.03,1.24-1.71,2.37-2.04,3.38-.3.94-.46,3.04-.46,6.29,0,7.38-.14,12.05-.42,13.99-.28,1.95-.87,3.49-1.76,4.64-.87,1.12-2.45,2.25-4.75,3.38,2.93,1.48,4.8,3.08,5.62,4.82.77,1.71,1.2,5.04,1.27,9.98Zm5.24-37.51c0,8.06-.08,13.09-.25,15.08-.16,2.13-.77,3.73-1.83,4.78-1.03,1.08-2.65,1.73-4.85,1.97,1.36-.7,2.32-1.48,2.88-2.32.52-.82.9-1.62,1.16-2.39.21-.75.32-3.27.32-7.56,0-6.45.11-10.72.32-12.83.21-2.09,1.07-3.91,2.57-5.48,1.52-1.55,3.26-2.32,5.2-2.32.3,0,.56.01.77.04v.74c-2.16.56-3.73,1.61-4.71,3.13-1.01,1.55-1.54,3.94-1.58,7.17Zm0,39.16c0,5.23.09,8.62.28,10.2.16,1.45.77,2.78,1.83,3.97,1.01,1.15,2.4,1.96,4.18,2.43v.74c-1.97,0-3.7-.54-5.2-1.62-1.55-1.08-2.54-2.61-2.99-4.61-.49-1.99-.74-5.86-.74-11.6,0-.59.02-1.51.07-2.78.02-.49.04-1.24.04-2.25,0-3.16-.32-5.39-.95-6.68-.68-1.34-1.83-2.45-3.45-3.34,2.37.16,4.02.83,4.96,2,.96,1.17,1.51,2.44,1.65,3.8.14,1.36.25,4.61.32,9.74Z"/>
        </clipPath>
        <clipPath id="clippath-1">
            <path class="cls-6"
                  d="m35.21,26.82c-.07-3.23-.6-5.62-1.58-7.17-1.03-1.52-2.6-2.57-4.71-3.13v-.74c1.95,0,3.67.53,5.17,1.58,1.52,1.1,2.53,2.65,3.02,4.64.47,2.06.7,5.93.7,11.6,0,1.22-.01,2.14-.04,2.78-.02.49-.04,1.24-.04,2.25,0,3.14.32,5.37.95,6.68.63,1.31,1.78,2.43,3.45,3.34-2.3-.16-3.93-.82-4.89-1.97-.94-1.08-1.51-2.32-1.72-3.73-.21-1.38-.32-6.76-.32-16.14Zm0,39.16c.07-5.13.18-8.38.32-9.74.14-1.36.69-2.62,1.65-3.8.96-1.17,2.61-1.84,4.96-2-1.41.73-2.37,1.5-2.88,2.32-.54.87-.91,1.66-1.12,2.39-.12.4-.21,1.32-.26,2.76-.06,1.44-.09,3.04-.09,4.8,0,6.47-.11,10.73-.32,12.8-.26,2.13-1.12,3.96-2.6,5.48-1.5,1.57-3.23,2.36-5.2,2.36-.28,0-.53-.01-.74-.04v-.74c1.78-.47,3.16-1.27,4.15-2.39,1.03-1.17,1.65-2.52,1.86-4.04.19-1.64.28-5.03.28-10.16Zm5.24-1.65c.07-4.99.5-8.33,1.3-10.02.8-1.71,2.66-3.3,5.59-4.78-2.67-1.29-4.38-2.6-5.13-3.94-.8-1.31-1.3-2.91-1.51-4.78-.21-1.88-.32-6.3-.32-13.29,0-3.14-.14-5.2-.42-6.19-.28-1.01-.96-2.17-2.04-3.48,2.04.68,3.4,1.76,4.08,3.23.68,1.5,1.02,5.16,1.02,10.97l-.04,4.18c0,4.2.52,7.09,1.55,8.68,1.03,1.62,2.79,3.02,5.27,4.22v.81c-2.41,1.15-4.16,2.53-5.24,4.15-1.05,1.57-1.58,4.46-1.58,8.68l.04,4.39c0,5.74-.33,9.34-.98,10.79-.66,1.52-2.03,2.61-4.11,3.27,1.03-1.27,1.7-2.39,2-3.38.3-.94.46-3.04.46-6.29,0-1.22.01-2.38.04-3.48.02-1.1.04-2.36.04-3.76Z"/>
        </clipPath>
        <clipPath id="clippath-2">
            <path class="cls-6"
                  d="m14.79,64.35c.02,2.13.04,4.55.04,7.24,0,3.14.14,5.2.42,6.19.28.96.97,2.12,2.07,3.48-1.83-.54-3.13-1.5-3.9-2.88-.77-1.36-1.16-3.69-1.16-7v-8.58c0-4.17-.52-7.05-1.55-8.65-1.03-1.59-2.79-2.99-5.27-4.18v-.81c2.41-1.15,4.16-2.53,5.24-4.15,1.05-1.59,1.58-4.51,1.58-8.75l-.04-4.18c0-5.81.34-9.47,1.02-10.97.68-1.5,2.04-2.58,4.08-3.23-1.03,1.24-1.71,2.37-2.04,3.38-.3.94-.46,3.04-.46,6.29,0,7.38-.14,12.05-.42,13.99-.28,1.95-.87,3.49-1.76,4.64-.87,1.12-2.45,2.25-4.75,3.38,2.93,1.48,4.8,3.08,5.62,4.82.77,1.71,1.2,5.04,1.27,9.98Zm5.24-37.51c0,8.06-.08,13.09-.25,15.08-.16,2.13-.77,3.73-1.83,4.78-1.03,1.08-2.65,1.73-4.85,1.97,1.36-.7,2.32-1.48,2.88-2.32.52-.82.9-1.62,1.16-2.39.21-.75.32-3.27.32-7.56,0-6.45.11-10.72.32-12.83.21-2.09,1.07-3.91,2.57-5.48,1.52-1.55,3.26-2.32,5.2-2.32.3,0,.56.01.77.04v.74c-2.16.56-3.73,1.61-4.71,3.13-1.01,1.55-1.54,3.94-1.58,7.17Zm0,39.16c0,5.23.09,8.62.28,10.2.16,1.45.77,2.78,1.83,3.97,1.01,1.15,2.4,1.96,4.18,2.43v.74c-1.97,0-3.7-.54-5.2-1.62-1.55-1.08-2.54-2.61-2.99-4.61-.49-1.99-.74-5.86-.74-11.6,0-.59.02-1.51.07-2.78.02-.49.04-1.24.04-2.25,0-3.16-.32-5.39-.95-6.68-.68-1.34-1.83-2.45-3.45-3.34,2.37.16,4.02.83,4.96,2,.96,1.17,1.51,2.44,1.65,3.8.14,1.36.25,4.61.32,9.74Z"/>
        </clipPath>
        <clipPath id="clippath-3">
            <path class="cls-6"
                  d="m35.21,26.82c-.07-3.23-.6-5.62-1.58-7.17-1.03-1.52-2.6-2.57-4.71-3.13v-.74c1.95,0,3.67.53,5.17,1.58,1.52,1.1,2.53,2.65,3.02,4.64.47,2.06.7,5.93.7,11.6,0,1.22-.01,2.14-.04,2.78-.02.49-.04,1.24-.04,2.25,0,3.14.32,5.37.95,6.68.63,1.31,1.78,2.43,3.45,3.34-2.3-.16-3.93-.82-4.89-1.97-.94-1.08-1.51-2.32-1.72-3.73-.21-1.38-.32-6.76-.32-16.14Zm0,39.16c.07-5.13.18-8.38.32-9.74.14-1.36.69-2.62,1.65-3.8.96-1.17,2.61-1.84,4.96-2-1.41.73-2.37,1.5-2.88,2.32-.54.87-.91,1.66-1.12,2.39-.12.4-.21,1.32-.26,2.76-.06,1.44-.09,3.04-.09,4.8,0,6.47-.11,10.73-.32,12.8-.26,2.13-1.12,3.96-2.6,5.48-1.5,1.57-3.23,2.36-5.2,2.36-.28,0-.53-.01-.74-.04v-.74c1.78-.47,3.16-1.27,4.15-2.39,1.03-1.17,1.65-2.52,1.86-4.04.19-1.64.28-5.03.28-10.16Zm5.24-1.65c.07-4.99.5-8.33,1.3-10.02.8-1.71,2.66-3.3,5.59-4.78-2.67-1.29-4.38-2.6-5.13-3.94-.8-1.31-1.3-2.91-1.51-4.78-.21-1.88-.32-6.3-.32-13.29,0-3.14-.14-5.2-.42-6.19-.28-1.01-.96-2.17-2.04-3.48,2.04.68,3.4,1.76,4.08,3.23.68,1.5,1.02,5.16,1.02,10.97l-.04,4.18c0,4.2.52,7.09,1.55,8.68,1.03,1.62,2.79,3.02,5.27,4.22v.81c-2.41,1.15-4.16,2.53-5.24,4.15-1.05,1.57-1.58,4.46-1.58,8.68l.04,4.39c0,5.74-.33,9.34-.98,10.79-.66,1.52-2.03,2.61-4.11,3.27,1.03-1.27,1.7-2.39,2-3.38.3-.94.46-3.04.46-6.29,0-1.22.01-2.38.04-3.48.02-1.1.04-2.36.04-3.76Z"/>
        </clipPath>
    </defs>
    <path class="cls-1"
          d="m14.79,64.33c.02,2.13.04,4.55.04,7.24,0,3.14.14,5.2.42,6.19.28.96.97,2.12,2.07,3.48-1.83-.54-3.13-1.5-3.9-2.88-.77-1.36-1.16-3.69-1.16-7v-8.58c0-4.17-.52-7.05-1.55-8.65-1.03-1.59-2.79-2.99-5.27-4.18v-.81c2.41-1.15,4.16-2.53,5.24-4.15,1.05-1.59,1.58-4.51,1.58-8.75l-.04-4.18c0-5.81.34-9.47,1.02-10.97.68-1.5,2.04-2.58,4.08-3.23-1.03,1.24-1.71,2.37-2.04,3.38-.3.94-.46,3.04-.46,6.29,0,7.38-.14,12.05-.42,13.99-.28,1.95-.87,3.49-1.76,4.64-.87,1.12-2.45,2.25-4.75,3.38,2.93,1.48,4.8,3.08,5.62,4.82.77,1.71,1.2,5.04,1.27,9.98Zm5.24-37.51c0,8.06-.08,13.09-.25,15.08-.16,2.13-.77,3.73-1.83,4.78-1.03,1.08-2.65,1.73-4.85,1.97,1.36-.7,2.32-1.48,2.88-2.32.52-.82.9-1.62,1.16-2.39.21-.75.32-3.27.32-7.56,0-6.45.11-10.72.32-12.83.21-2.09,1.07-3.91,2.57-5.48,1.52-1.55,3.26-2.32,5.2-2.32.3,0,.56.01.77.04v.74c-2.16.56-3.73,1.61-4.71,3.13-1.01,1.55-1.54,3.94-1.58,7.17Zm0,39.16c0,5.23.09,8.62.28,10.2.16,1.45.77,2.78,1.83,3.97,1.01,1.15,2.4,1.96,4.18,2.43v.74c-1.97,0-3.7-.54-5.2-1.62-1.55-1.08-2.54-2.61-2.99-4.61-.49-1.99-.74-5.86-.74-11.6,0-.59.02-1.51.07-2.78.02-.49.04-1.24.04-2.25,0-3.16-.32-5.39-.95-6.68-.68-1.34-1.83-2.45-3.45-3.34,2.37.16,4.02.83,4.96,2,.96,1.17,1.51,2.44,1.65,3.8.14,1.36.25,4.61.32,9.74Z"/>
    <path class="cls-1"
          d="m35.21,26.82c-.07-3.23-.6-5.62-1.58-7.17-1.03-1.52-2.6-2.57-4.71-3.13v-.74c1.95,0,3.67.53,5.17,1.58,1.52,1.1,2.53,2.65,3.02,4.64.47,2.06.7,5.93.7,11.6,0,1.22-.01,2.14-.04,2.78-.02.49-.04,1.24-.04,2.25,0,3.14.32,5.37.95,6.68.63,1.31,1.78,2.43,3.45,3.34-2.3-.16-3.93-.82-4.89-1.97-.94-1.08-1.51-2.32-1.72-3.73-.21-1.38-.32-6.76-.32-16.14Zm0,39.16c.07-5.13.18-8.38.32-9.74.14-1.36.69-2.62,1.65-3.8.96-1.17,2.61-1.84,4.96-2-1.41.73-2.37,1.5-2.88,2.32-.54.87-.91,1.66-1.12,2.39-.12.4-.21,1.32-.26,2.76-.06,1.44-.09,3.04-.09,4.8,0,6.47-.11,10.73-.32,12.8-.26,2.13-1.12,3.96-2.6,5.48-1.5,1.57-3.23,2.36-5.2,2.36-.28,0-.53-.01-.74-.04v-.74c1.78-.47,3.16-1.27,4.15-2.39,1.03-1.17,1.65-2.52,1.86-4.04.19-1.64.28-5.03.28-10.16Zm5.24-1.65c.07-4.99.5-8.33,1.3-10.02.8-1.71,2.66-3.3,5.59-4.78-2.67-1.29-4.38-2.6-5.13-3.94-.8-1.31-1.3-2.91-1.51-4.78-.21-1.88-.32-6.3-.32-13.29,0-3.14-.14-5.2-.42-6.19-.28-1.01-.96-2.17-2.04-3.48,2.04.68,3.4,1.76,4.08,3.23.68,1.5,1.02,5.16,1.02,10.97l-.04,4.18c0,4.2.52,7.09,1.55,8.68,1.03,1.62,2.79,3.02,5.27,4.22v.81c-2.41,1.15-4.16,2.53-5.24,4.15-1.05,1.57-1.58,4.46-1.58,8.68l.04,4.39c0,5.74-.33,9.34-.98,10.79-.66,1.52-2.03,2.61-4.11,3.27,1.03-1.27,1.7-2.39,2-3.38.3-.94.46-3.04.46-6.29,0-1.22.01-2.38.04-3.48.02-1.1.04-2.36.04-3.76Z"/>
    <g class="cls-5">
        <rect class="cls-8" x="-25.39" y="44.97" width="106.03" height="9.16"
              transform="translate(-29.04 52.32) rotate(-63.67)"/>
    </g>
    <g class="cls-4">
        <rect class="cls-8" x="-25.39" y="44.97" width="106.03" height="9.16"
              transform="translate(-29.04 52.32) rotate(-63.67)"/>
    </g>
    <g class="cls-2">
        <rect class="cls-3" x="-25.39" y="44.97" width="106.03" height="9.16"
              transform="translate(-4.53 96.28) rotate(-116.33)"/>
    </g>
    <g class="cls-7">
        <rect class="cls-3" x="-25.39" y="44.97" width="106.03" height="9.16"
              transform="translate(-4.53 96.28) rotate(-116.33)"/>
    </g>
</svg>