<svg version="1.1" viewBox="0.0 0.0 600.0 371.0" fill="none" stroke="none"
     stroke-linecap="square" stroke-miterlimit="10" width="600" height="371"
     xmlns="http://www.w3.org/2000/svg">
    <path fill="#ffffff" d="M0 0L600.0 0L600.0 371.0L0 371.0L0 0Z" fill-rule="nonzero"/>
    <path stroke="#333333" stroke-width="1.0" stroke-linecap="butt" d="M91.5 332.5L581.5 332.5" fill-rule="nonzero"/>
    <path stroke="#cccccc" stroke-width="1.0" stroke-linecap="butt" d="M91.5 251.5L581.5 251.5" fill-rule="nonzero"/>
    <path stroke="#cccccc" stroke-width="1.0" stroke-linecap="butt" d="M91.5 169.5L581.5 169.5" fill-rule="nonzero"/>
    <path stroke="#cccccc" stroke-width="1.0" stroke-linecap="butt" d="M91.5 88.5L581.5 88.5" fill-rule="nonzero"/>
    <clipPath id="id_0">
        <path d="M91.55 88.28333L581.45 88.28333L581.45 332.45L91.55 332.45L91.55 88.28333Z" clip-rule="nonzero"/>
    </clipPath>
    <path stroke="#000000" stroke-width="2.0" stroke-linecap="butt" stroke-opacity="0.0" clip-path="url(#id_0)"
          d="M231.0 332.0L165.0 332.0L165.0 220.0C165.0 218.89543 165.89543 218.0 167.0 218.0L229.0 218.0C230.10457 218.0 231.0 218.89543 231.0 220.0Z"
          fill-rule="nonzero"/>
    <path fill="#4285f4" clip-path="url(#id_0)"
          d="M231.0 332.0L165.0 332.0L165.0 220.0C165.0 218.89543 165.89543 218.0 167.0 218.0L229.0 218.0C230.10457 218.0 231.0 218.89543 231.0 220.0Z"
          fill-rule="nonzero"/>
    <path stroke="#000000" stroke-width="2.0" stroke-linecap="butt" stroke-opacity="0.0" clip-path="url(#id_0)"
          d="M440.0 332.0L374.0 332.0L374.0 110.0C374.0 108.89543 374.89542 108.0 376.0 108.0L438.0 108.0C439.10458 108.0 440.0 108.89543 440.0 110.0Z"
          fill-rule="nonzero"/>
    <path fill="#4285f4" clip-path="url(#id_0)"
          d="M440.0 332.0L374.0 332.0L374.0 110.0C374.0 108.89543 374.89542 108.0 376.0 108.0L438.0 108.0C439.10458 108.0 440.0 108.89543 440.0 110.0Z"
          fill-rule="nonzero"/>
    <path stroke="#000000" stroke-width="2.0" stroke-linecap="butt" stroke-opacity="0.0" clip-path="url(#id_0)"
          d="M299.0 332.0L233.0 332.0L233.0 320.0C233.0 318.89542 233.89543 318.0 235.0 318.0L297.0 318.0C298.10458 318.0 299.0 318.89542 299.0 320.0Z"
          fill-rule="nonzero"/>
    <path fill="#ea4335" clip-path="url(#id_0)"
          d="M299.0 332.0L233.0 332.0L233.0 320.0C233.0 318.89542 233.89543 318.0 235.0 318.0L297.0 318.0C298.10458 318.0 299.0 318.89542 299.0 320.0Z"
          fill-rule="nonzero"/>
    <path stroke="#000000" stroke-width="2.0" stroke-linecap="butt" stroke-opacity="0.0" clip-path="url(#id_0)"
          d="M508.0 332.0L442.0 332.0L442.0 303.0C442.0 301.89542 442.89542 301.0 444.0 301.0L506.0 301.0C507.10458 301.0 508.0 301.89542 508.0 303.0Z"
          fill-rule="nonzero"/>
    <path fill="#ea4335" clip-path="url(#id_0)"
          d="M508.0 332.0L442.0 332.0L442.0 303.0C442.0 301.89542 442.89542 301.0 444.0 301.0L506.0 301.0C507.10458 301.0 508.0 301.89542 508.0 303.0Z"
          fill-rule="nonzero"/>
    <path fill="#000000"
          d="M29.550013 256.99167L20.956263 256.99167L20.956263 255.85104L28.534388 255.85104L28.534388 251.61667L29.550013 251.61667L29.550013 256.99167ZM26.440638 250.46042Q24.706263 250.46042 23.878138 249.5073Q23.190638 248.71042 23.190638 247.55417Q23.190638 246.27292 24.034388 245.46042Q24.862513 244.6323 26.346888 244.6323Q27.550013 244.6323 28.237513 244.99167Q28.925013 245.35104 29.315638 246.05417Q29.690638 246.74167 29.690638 247.55417Q29.690638 248.85104 28.862513 249.66354Q28.018763 250.46042 26.440638 250.46042ZM26.440638 249.3823Q27.628138 249.3823 28.221888 248.86667Q28.815638 248.33542 28.815638 247.55417Q28.815638 246.7573 28.221888 246.24167Q27.628138 245.72604 26.409388 245.72604Q25.253138 245.72604 24.659388 246.2573Q24.065638 246.77292 24.065638 247.55417Q24.065638 248.33542 24.659388 248.86667Q25.237513 249.3823 26.440638 249.3823ZM29.550013 241.92917L23.331263 243.83542L23.331263 242.74167L26.925013 241.7573L28.253138 241.3823Q28.159388 241.35104 26.971888 241.05417L23.331263 240.0698L23.331263 238.99167L26.940638 238.05417L28.128138 237.74167L26.925013 237.3823L23.331263 236.3198L23.331263 235.28854L29.550013 237.24167L29.550013 238.33542L25.815638 239.3198L24.768763 239.5698L29.550013 240.8198L29.550013 241.92917ZM27.550013 229.8198L27.675013 228.72604Q28.628138 228.97604 29.159388 229.67917Q29.690638 230.3823 29.690638 231.46042Q29.690638 232.8198 28.846888 233.6323Q28.003138 234.42917 26.487513 234.42917Q24.925013 234.42917 24.065638 233.61667Q23.190638 232.80417 23.190638 231.52292Q23.190638 230.27292 24.034388 229.49167Q24.878138 228.6948 26.425013 228.6948Q26.518763 228.6948 26.706263 228.6948L26.706263 233.33542Q27.737513 233.27292 28.284388 232.7573Q28.815638 232.24167 28.815638 231.46042Q28.815638 230.8823 28.518763 230.47604Q28.206263 230.05417 27.550013 229.8198ZM25.846888 233.27292L25.846888 229.80417Q25.050013 229.86667 24.659388 230.1948Q24.050013 230.71042 24.050013 231.5073Q24.050013 232.24167 24.534388 232.74167Q25.018763 233.22604 25.846888 233.27292ZM29.550013 227.08542L23.331263 227.08542L23.331263 226.1323L24.268763 226.1323Q23.612513 225.77292 23.409388 225.47604Q23.190638 225.16354 23.190638 224.78854Q23.190638 224.2573 23.518763 223.71042L24.503138 224.0698Q24.268763 224.46042 24.268763 224.83542Q24.268763 225.1948 24.487513 225.47604Q24.690638 225.74167 25.065638 225.85104Q25.628138 226.03854 26.284388 226.03854L29.550013 226.03854L29.550013 227.08542ZM22.175013 220.0698L20.956263 220.0698L20.956263 219.0073L22.175013 219.0073L22.175013 220.0698ZM29.550013 220.0698L23.331263 220.0698L23.331263 219.0073L29.550013 219.0073L29.550013 220.0698ZM27.690638 217.49167L27.534388 216.46042Q28.159388 216.36667 28.487513 215.97604Q28.815638 215.5698 28.815638 214.83542Q28.815638 214.11667 28.534388 213.77292Q28.237513 213.41354 27.831263 213.41354Q27.471888 213.41354 27.268763 213.72604Q27.128138 213.9448 26.909388 214.80417Q26.612513 215.96042 26.409388 216.41354Q26.190638 216.85104 25.815638 217.08542Q25.440638 217.3198 24.971888 217.3198Q24.565638 217.3198 24.206263 217.1323Q23.846888 216.9448 23.612513 216.61667Q23.440638 216.36667 23.315638 215.9448Q23.190638 215.52292 23.190638 215.02292Q23.190638 214.30417 23.409388 213.7573Q23.612513 213.1948 23.971888 212.92917Q24.331263 212.66354 24.925013 212.5698L25.065638 213.60104Q24.596888 213.66354 24.331263 214.0073Q24.050013 214.33542 24.050013 214.96042Q24.050013 215.67917 24.300013 215.99167Q24.534388 216.30417 24.862513 216.30417Q25.065638 216.30417 25.221888 216.17917Q25.393763 216.03854 25.503138 215.77292Q25.565638 215.61667 25.768763 214.83542Q26.081263 213.71042 26.268763 213.27292Q26.456263 212.83542 26.815638 212.58542Q27.175013 212.33542 27.721888 212.33542Q28.253138 212.33542 28.721888 212.64792Q29.175013 212.9448 29.440638 213.52292Q29.690638 214.10104 29.690638 214.83542Q29.690638 216.05417 29.190638 216.6948Q28.675013 217.3198 27.690638 217.49167ZM29.550013 206.99167L20.956263 206.99167L20.956263 203.7573Q20.956263 202.77292 21.221888 202.17917Q21.487513 201.58542 22.034388 201.2573Q22.565638 200.91354 23.159388 200.91354Q23.706263 200.91354 24.190638 201.21042Q24.675013 201.5073 24.971888 202.11667Q25.206263 201.33542 25.768763 200.92917Q26.315638 200.5073 27.065638 200.5073Q27.659388 200.5073 28.190638 200.7573Q28.706263 201.0073 28.987513 201.3823Q29.268763 201.7573 29.409388 202.33542Q29.550013 202.89792 29.550013 203.71042L29.550013 206.99167ZM24.565638 205.85104L24.565638 203.99167Q24.565638 203.24167 24.471888 202.91354Q24.346888 202.47604 24.050013 202.2573Q23.737513 202.03854 23.284388 202.03854Q22.862513 202.03854 22.534388 202.24167Q22.206263 202.4448 22.096888 202.83542Q21.971888 203.21042 21.971888 204.1323L21.971888 205.85104L24.565638 205.85104ZM28.534388 205.85104L28.534388 203.71042Q28.534388 203.16354 28.487513 202.9448Q28.425013 202.53854 28.268763 202.28854Q28.096888 202.02292 27.784388 201.85104Q27.471888 201.67917 27.065638 201.67917Q26.581263 201.67917 26.221888 201.92917Q25.862513 202.16354 25.721888 202.60104Q25.581263 203.03854 25.581263 203.86667L25.581263 205.85104L28.534388 205.85104ZM27.550013 194.8198L27.675013 193.72604Q28.628138 193.97604 29.159388 194.67917Q29.690638 195.3823 29.690638 196.46042Q29.690638 197.8198 28.846888 198.6323Q28.003138 199.42917 26.487513 199.42917Q24.925013 199.42917 24.065638 198.61667Q23.190638 197.80417 23.190638 196.52292Q23.190638 195.27292 24.034388 194.49167Q24.878138 193.6948 26.425013 193.6948Q26.518763 193.6948 26.706263 193.6948L26.706263 198.33542Q27.737513 198.27292 28.284388 197.7573Q28.815638 197.24167 28.815638 196.46042Q28.815638 195.8823 28.518763 195.47604Q28.206263 195.05417 27.550013 194.8198ZM25.846888 198.27292L25.846888 194.80417Q25.050013 194.86667 24.659388 195.1948Q24.050013 195.71042 24.050013 196.5073Q24.050013 197.24167 24.534388 197.74167Q25.018763 198.22604 25.846888 198.27292ZM28.612513 189.77292L29.534388 189.61667Q29.628138 190.0698 29.628138 190.41354Q29.628138 190.99167 29.456263 191.30417Q29.268763 191.61667 28.971888 191.7573Q28.675013 191.8823 27.721888 191.8823L24.143763 191.8823L24.143763 192.64792L23.331263 192.64792L23.331263 191.8823L21.784388 191.8823L21.159388 190.83542L23.331263 190.83542L23.331263 189.77292L24.143763 189.77292L24.143763 190.83542L27.784388 190.83542Q28.237513 190.83542 28.362513 190.78854Q28.487513 190.72604 28.565638 190.60104Q28.643763 190.47604 28.643763 190.24167Q28.643763 190.05417 28.612513 189.77292ZM28.612513 186.77292L29.534388 186.61667Q29.628138 187.0698 29.628138 187.41354Q29.628138 187.99167 29.456263 188.30417Q29.268763 188.61667 28.971888 188.7573Q28.675013 188.8823 27.721888 188.8823L24.143763 188.8823L24.143763 189.64792L23.331263 189.64792L23.331263 188.8823L21.784388 188.8823L21.159388 187.83542L23.331263 187.83542L23.331263 186.77292L24.143763 186.77292L24.143763 187.83542L27.784388 187.83542Q28.237513 187.83542 28.362513 187.78854Q28.487513 187.72604 28.565638 187.60104Q28.643763 187.47604 28.643763 187.24167Q28.643763 187.05417 28.612513 186.77292ZM27.550013 181.8198L27.675013 180.72604Q28.628138 180.97604 29.159388 181.67917Q29.690638 182.3823 29.690638 183.46042Q29.690638 184.8198 28.846888 185.6323Q28.003138 186.42917 26.487513 186.42917Q24.925013 186.42917 24.065638 185.61667Q23.190638 184.80417 23.190638 183.52292Q23.190638 182.27292 24.034388 181.49167Q24.878138 180.6948 26.425013 180.6948Q26.518763 180.6948 26.706263 180.6948L26.706263 185.33542Q27.737513 185.27292 28.284388 184.7573Q28.815638 184.24167 28.815638 183.46042Q28.815638 182.8823 28.518763 182.47604Q28.206263 182.05417 27.550013 181.8198ZM25.846888 185.27292L25.846888 181.80417Q25.050013 181.86667 24.659388 182.1948Q24.050013 182.71042 24.050013 183.5073Q24.050013 184.24167 24.534388 184.74167Q25.018763 185.22604 25.846888 185.27292ZM29.550013 179.08542L23.331263 179.08542L23.331263 178.1323L24.268763 178.1323Q23.612513 177.77292 23.409388 177.47604Q23.190638 177.16354 23.190638 176.78854Q23.190638 176.2573 23.518763 175.71042L24.503138 176.0698Q24.268763 176.46042 24.268763 176.83542Q24.268763 177.1948 24.487513 177.47604Q24.690638 177.74167 25.065638 177.85104Q25.628138 178.03854 26.284388 178.03854L29.550013 178.03854L29.550013 179.08542Z"
          fill-rule="nonzero"/>
    <path fill="#000000"
          d="M58.05 332.21564Q58.05 330.6844 58.3625 329.7625Q58.675 328.825 59.284374 328.325Q59.909374 327.825 60.846874 327.825Q61.534374 327.825 62.05 328.10626Q62.58125 328.3875 62.925 328.91876Q63.26875 329.4344 63.45625 330.1844Q63.64375 330.9344 63.64375 332.21564Q63.64375 333.73126 63.33125 334.65314Q63.034374 335.575 62.409374 336.09064Q61.8 336.59064 60.846874 336.59064Q59.6125 336.59064 58.89375 335.7Q58.05 334.6375 58.05 332.21564ZM59.128124 332.21564Q59.128124 334.325 59.628124 335.02814Q60.128124 335.73126 60.846874 335.73126Q61.58125 335.73126 62.065624 335.02814Q62.565624 334.325 62.565624 332.21564Q62.565624 330.09064 62.065624 329.40314Q61.58125 328.7 60.83125 328.7Q60.1125 328.7 59.675 329.3094Q59.128124 330.09064 59.128124 332.21564ZM68.34688 336.45L68.34688 330.23126L69.28438 330.23126L69.28438 331.10626Q69.58125 330.6375 70.06563 330.3719Q70.55 330.09064 71.175 330.09064Q71.8625 330.09064 72.3 330.3719Q72.75313 330.65314 72.925 331.16876Q73.675 330.09064 74.84688 330.09064Q75.78438 330.09064 76.26875 330.60626Q76.76875 331.10626 76.76875 332.1844L76.76875 336.45L75.72188 336.45L75.72188 332.52814Q75.72188 331.90314 75.6125 331.6219Q75.51875 331.34064 75.25313 331.16876Q74.9875 330.9969 74.6125 330.9969Q73.95625 330.9969 73.51875 331.4344Q73.09688 331.8719 73.09688 332.84064L73.09688 336.45L72.03438 336.45L72.03438 332.40314Q72.03438 331.7 71.76875 331.35626Q71.51875 330.9969 70.94063 330.9969Q70.4875 330.9969 70.1125 331.23126Q69.7375 331.46564 69.56563 331.91876Q69.39375 332.3719 69.39375 333.21564L69.39375 336.45L68.34688 336.45ZM80.31563 336.45L79.33125 336.45L79.33125 327.85626L80.39375 327.85626L80.39375 330.91876Q81.06563 330.09064 82.09688 330.09064Q82.675 330.09064 83.175 330.325Q83.69063 330.54376 84.01875 330.96564Q84.3625 331.3875 84.55 331.98126Q84.7375 332.575 84.7375 333.2469Q84.7375 334.84064 83.94063 335.71564Q83.14375 336.59064 82.05 336.59064Q80.94063 336.59064 80.31563 335.66876L80.31563 336.45ZM80.3 333.29376Q80.3 334.40314 80.6125 334.90314Q81.1125 335.71564 81.95625 335.71564Q82.64375 335.71564 83.14375 335.1219Q83.65938 334.52814 83.65938 333.325Q83.65938 332.10626 83.175 331.52814Q82.69063 330.95 82.00313 330.95Q81.31563 330.95 80.8 331.5594Q80.3 332.15314 80.3 333.29376Z"
          fill-rule="nonzero"/>
    <path fill="#000000"
          d="M55.01875 255.06111L53.971874 255.06111L53.971874 248.34236Q53.58125 248.70174 52.95625 249.07674Q52.346874 249.43611 51.8625 249.60799L51.8625 248.59236Q52.7375 248.17049 53.39375 247.59236Q54.065624 246.99861 54.346874 246.43611L55.01875 246.43611L55.01875 255.06111ZM58.05 250.82674Q58.05 249.29549 58.3625 248.37361Q58.675 247.43611 59.284374 246.93611Q59.909374 246.43611 60.846874 246.43611Q61.534374 246.43611 62.05 246.71736Q62.58125 246.99861 62.925 247.52986Q63.26875 248.04549 63.45625 248.79549Q63.64375 249.54549 63.64375 250.82674Q63.64375 252.34236 63.33125 253.26424Q63.034374 254.18611 62.409374 254.70174Q61.8 255.20174 60.846874 255.20174Q59.6125 255.20174 58.89375 254.31111Q58.05 253.24861 58.05 250.82674ZM59.128124 250.82674Q59.128124 252.93611 59.628124 253.63924Q60.128124 254.34236 60.846874 254.34236Q61.58125 254.34236 62.065624 253.63924Q62.565624 252.93611 62.565624 250.82674Q62.565624 248.70174 62.065624 248.01424Q61.58125 247.31111 60.83125 247.31111Q60.1125 247.31111 59.675 247.92049Q59.128124 248.70174 59.128124 250.82674ZM68.34688 255.06111L68.34688 248.84236L69.28438 248.84236L69.28438 249.71736Q69.58125 249.24861 70.06563 248.98299Q70.55 248.70174 71.175 248.70174Q71.8625 248.70174 72.3 248.98299Q72.75313 249.26424 72.925 249.77986Q73.675 248.70174 74.84688 248.70174Q75.78438 248.70174 76.26875 249.21736Q76.76875 249.71736 76.76875 250.79549L76.76875 255.06111L75.72188 255.06111L75.72188 251.13924Q75.72188 250.51424 75.6125 250.23299Q75.51875 249.95174 75.25313 249.77986Q74.9875 249.60799 74.6125 249.60799Q73.95625 249.60799 73.51875 250.04549Q73.09688 250.48299 73.09688 251.45174L73.09688 255.06111L72.03438 255.06111L72.03438 251.01424Q72.03438 250.31111 71.76875 249.96736Q71.51875 249.60799 70.94063 249.60799Q70.4875 249.60799 70.1125 249.84236Q69.7375 250.07674 69.56563 250.52986Q69.39375 250.98299 69.39375 251.82674L69.39375 255.06111L68.34688 255.06111ZM80.31563 255.06111L79.33125 255.06111L79.33125 246.46736L80.39375 246.46736L80.39375 249.52986Q81.06563 248.70174 82.09688 248.70174Q82.675 248.70174 83.175 248.93611Q83.69063 249.15486 84.01875 249.57674Q84.3625 249.99861 84.55 250.59236Q84.7375 251.18611 84.7375 251.85799Q84.7375 253.45174 83.94063 254.32674Q83.14375 255.20174 82.05 255.20174Q80.94063 255.20174 80.31563 254.27986L80.31563 255.06111ZM80.3 251.90486Q80.3 253.01424 80.6125 253.51424Q81.1125 254.32674 81.95625 254.32674Q82.64375 254.32674 83.14375 253.73299Q83.65938 253.13924 83.65938 251.93611Q83.65938 250.71736 83.175 250.13924Q82.69063 249.56111 82.00313 249.56111Q81.31563 249.56111 80.8 250.17049Q80.3 250.76424 80.3 251.90486Z"
          fill-rule="nonzero"/>
    <path fill="#000000"
          d="M56.596874 172.6566L56.596874 173.67223L50.909374 173.67223Q50.909374 173.29723 51.034374 172.93785Q51.253124 172.35973 51.721874 171.79723Q52.20625 171.23473 53.1125 170.50035Q54.51875 169.3441 55.003124 168.67223Q55.503124 168.00035 55.503124 167.4066Q55.503124 166.7816 55.05 166.35973Q54.596874 165.92223 53.878124 165.92223Q53.1125 165.92223 52.659374 166.37535Q52.20625 166.82848 52.190624 167.64098L51.1125 167.5316Q51.221874 166.31285 51.940624 165.68785Q52.675 165.04723 53.909374 165.04723Q55.14375 165.04723 55.8625 165.73473Q56.58125 166.42223 56.58125 167.43785Q56.58125 167.95348 56.3625 168.45348Q56.159374 168.93785 55.659374 169.50035Q55.175 170.04723 54.05 171.00035Q53.096874 171.79723 52.815624 172.0941Q52.55 172.37535 52.378124 172.6566L56.596874 172.6566ZM58.05 169.43785Q58.05 167.9066 58.3625 166.98473Q58.675 166.04723 59.284374 165.54723Q59.909374 165.04723 60.846874 165.04723Q61.534374 165.04723 62.05 165.32848Q62.58125 165.60973 62.925 166.14098Q63.26875 166.6566 63.45625 167.4066Q63.64375 168.1566 63.64375 169.43785Q63.64375 170.95348 63.33125 171.87535Q63.034374 172.79723 62.409374 173.31285Q61.8 173.81285 60.846874 173.81285Q59.6125 173.81285 58.89375 172.92223Q58.05 171.85973 58.05 169.43785ZM59.128124 169.43785Q59.128124 171.54723 59.628124 172.25035Q60.128124 172.95348 60.846874 172.95348Q61.58125 172.95348 62.065624 172.25035Q62.565624 171.54723 62.565624 169.43785Q62.565624 167.31285 62.065624 166.62535Q61.58125 165.92223 60.83125 165.92223Q60.1125 165.92223 59.675 166.5316Q59.128124 167.31285 59.128124 169.43785ZM68.34688 173.67223L68.34688 167.45348L69.28438 167.45348L69.28438 168.32848Q69.58125 167.85973 70.06563 167.5941Q70.55 167.31285 71.175 167.31285Q71.8625 167.31285 72.3 167.5941Q72.75313 167.87535 72.925 168.39098Q73.675 167.31285 74.84688 167.31285Q75.78438 167.31285 76.26875 167.82848Q76.76875 168.32848 76.76875 169.4066L76.76875 173.67223L75.72188 173.67223L75.72188 169.75035Q75.72188 169.12535 75.6125 168.8441Q75.51875 168.56285 75.25313 168.39098Q74.9875 168.2191 74.6125 168.2191Q73.95625 168.2191 73.51875 168.6566Q73.09688 169.0941 73.09688 170.06285L73.09688 173.67223L72.03438 173.67223L72.03438 169.62535Q72.03438 168.92223 71.76875 168.57848Q71.51875 168.2191 70.94063 168.2191Q70.4875 168.2191 70.1125 168.45348Q69.7375 168.68785 69.56563 169.14098Q69.39375 169.5941 69.39375 170.43785L69.39375 173.67223L68.34688 173.67223ZM80.31563 173.67223L79.33125 173.67223L79.33125 165.07848L80.39375 165.07848L80.39375 168.14098Q81.06563 167.31285 82.09688 167.31285Q82.675 167.31285 83.175 167.54723Q83.69063 167.76598 84.01875 168.18785Q84.3625 168.60973 84.55 169.20348Q84.7375 169.79723 84.7375 170.4691Q84.7375 172.06285 83.94063 172.93785Q83.14375 173.81285 82.05 173.81285Q80.94063 173.81285 80.31563 172.89098L80.31563 173.67223ZM80.3 170.51598Q80.3 171.62535 80.6125 172.12535Q81.1125 172.93785 81.95625 172.93785Q82.64375 172.93785 83.14375 172.3441Q83.65938 171.75035 83.65938 170.54723Q83.65938 169.32848 83.175 168.75035Q82.69063 168.17223 82.00313 168.17223Q81.31563 168.17223 80.8 168.7816Q80.3 169.37535 80.3 170.51598Z"
          fill-rule="nonzero"/>
    <path fill="#000000"
          d="M51.05 90.01771L52.1125 89.87708Q52.284374 90.76771 52.721874 91.17396Q53.159374 91.56458 53.784374 91.56458Q54.534374 91.56458 55.05 91.04896Q55.565624 90.53333 55.565624 89.76771Q55.565624 89.04896 55.08125 88.58021Q54.6125 88.09583 53.878124 88.09583Q53.58125 88.09583 53.128124 88.22083L53.253124 87.28333Q53.3625 87.29896 53.425 87.29896Q54.096874 87.29896 54.628124 86.95521Q55.175 86.59583 55.175 85.86146Q55.175 85.28333 54.784374 84.90833Q54.39375 84.51771 53.76875 84.51771Q53.159374 84.51771 52.7375 84.90833Q52.33125 85.29896 52.221874 86.06458L51.159374 85.87708Q51.346874 84.83021 52.034374 84.25208Q52.721874 83.65833 53.7375 83.65833Q54.440624 83.65833 55.034374 83.97083Q55.628124 84.26771 55.940624 84.78333Q56.253124 85.29896 56.253124 85.89271Q56.253124 86.43958 55.95625 86.90833Q55.659374 87.36146 55.08125 87.62708Q55.83125 87.79896 56.253124 88.36146Q56.675 88.90833 56.675 89.75208Q56.675 90.87708 55.846874 91.65833Q55.034374 92.43958 53.784374 92.43958Q52.659374 92.43958 51.909374 91.76771Q51.159374 91.08021 51.05 90.01771ZM58.05 88.04896Q58.05 86.51771 58.3625 85.59583Q58.675 84.65833 59.284374 84.15833Q59.909374 83.65833 60.846874 83.65833Q61.534374 83.65833 62.05 83.93958Q62.58125 84.22083 62.925 84.75208Q63.26875 85.26771 63.45625 86.01771Q63.64375 86.76771 63.64375 88.04896Q63.64375 89.56458 63.33125 90.48646Q63.034374 91.40833 62.409374 91.92396Q61.8 92.42396 60.846874 92.42396Q59.6125 92.42396 58.89375 91.53333Q58.05 90.47083 58.05 88.04896ZM59.128124 88.04896Q59.128124 90.15833 59.628124 90.86146Q60.128124 91.56458 60.846874 91.56458Q61.58125 91.56458 62.065624 90.86146Q62.565624 90.15833 62.565624 88.04896Q62.565624 85.92396 62.065624 85.23646Q61.58125 84.53333 60.83125 84.53333Q60.1125 84.53333 59.675 85.14271Q59.128124 85.92396 59.128124 88.04896ZM68.34688 92.28333L68.34688 86.06458L69.28438 86.06458L69.28438 86.93958Q69.58125 86.47083 70.06563 86.20521Q70.55 85.92396 71.175 85.92396Q71.8625 85.92396 72.3 86.20521Q72.75313 86.48646 72.925 87.00208Q73.675 85.92396 74.84688 85.92396Q75.78438 85.92396 76.26875 86.43958Q76.76875 86.93958 76.76875 88.01771L76.76875 92.28333L75.72188 92.28333L75.72188 88.36146Q75.72188 87.73646 75.6125 87.45521Q75.51875 87.17396 75.25313 87.00208Q74.9875 86.83021 74.6125 86.83021Q73.95625 86.83021 73.51875 87.26771Q73.09688 87.70521 73.09688 88.67396L73.09688 92.28333L72.03438 92.28333L72.03438 88.23646Q72.03438 87.53333 71.76875 87.18958Q71.51875 86.83021 70.94063 86.83021Q70.4875 86.83021 70.1125 87.06458Q69.7375 87.29896 69.56563 87.75208Q69.39375 88.20521 69.39375 89.04896L69.39375 92.28333L68.34688 92.28333ZM80.31563 92.28333L79.33125 92.28333L79.33125 83.68958L80.39375 83.68958L80.39375 86.75208Q81.06563 85.92396 82.09688 85.92396Q82.675 85.92396 83.175 86.15833Q83.69063 86.37708 84.01875 86.79896Q84.3625 87.22083 84.55 87.81458Q84.7375 88.40833 84.7375 89.08021Q84.7375 90.67396 83.94063 91.54896Q83.14375 92.42396 82.05 92.42396Q80.94063 92.42396 80.31563 91.50208L80.31563 92.28333ZM80.3 89.12708Q80.3 90.23646 80.6125 90.73646Q81.1125 91.54896 81.95625 91.54896Q82.64375 91.54896 83.14375 90.95521Q83.65938 90.36146 83.65938 89.15833Q83.65938 87.93958 83.175 87.36146Q82.69063 86.78333 82.00313 86.78333Q81.31563 86.78333 80.8 87.39271Q80.3 87.98646 80.3 89.12708Z"
          fill-rule="nonzero"/>
    <path fill="#000000"
          d="M216.60971 347.0125L217.64096 346.8719Q217.67221 347.85626 218.00034 348.21564Q218.32846 348.575 218.92221 348.575Q219.34409 348.575 219.65659 348.3875Q219.96909 348.1844 220.07846 347.85626Q220.20346 347.5125 220.20346 346.77814L220.20346 340.85626L221.32846 340.85626L221.32846 346.71564Q221.32846 347.79376 221.06284 348.3875Q220.81284 348.98126 220.25034 349.29376Q219.68784 349.59064 218.92221 349.59064Q217.79721 349.59064 217.18784 348.95Q216.59409 348.29376 216.60971 347.0125ZM222.81284 346.6844L223.87534 346.59064Q223.95346 347.2469 224.23471 347.65314Q224.51596 348.0594 225.09409 348.325Q225.68784 348.575 226.42221 348.575Q227.06284 348.575 227.56284 348.3875Q228.06284 348.1844 228.29721 347.85626Q228.54721 347.5125 228.54721 347.1219Q228.54721 346.71564 228.31284 346.41876Q228.07846 346.10626 227.54721 345.90314Q227.18784 345.7625 226.00034 345.48126Q224.82846 345.2 224.35971 344.95Q223.73471 344.6219 223.43784 344.15314Q223.14096 343.66876 223.14096 343.075Q223.14096 342.4344 223.50034 341.8719Q223.87534 341.29376 224.57846 341.0125Q225.29721 340.71564 226.15659 340.71564Q227.10971 340.71564 227.84409 341.02814Q228.57846 341.325 228.96909 341.9344Q229.35971 342.52814 229.39096 343.27814L228.29721 343.35626Q228.20346 342.54376 227.68784 342.1375Q227.18784 341.71564 226.20346 341.71564Q225.17221 341.71564 224.70346 342.09064Q224.23471 342.46564 224.23471 342.9969Q224.23471 343.46564 224.56284 343.7625Q224.89096 344.0594 226.26596 344.3719Q227.65659 344.6844 228.17221 344.91876Q228.92221 345.27814 229.28159 345.8094Q229.64096 346.325 229.64096 347.02814Q229.64096 347.71564 229.25034 348.325Q228.85971 348.91876 228.12534 349.2625Q227.39096 349.59064 226.46909 349.59064Q225.29721 349.59064 224.50034 349.2625Q223.71909 348.91876 223.26596 348.23126Q222.82846 347.54376 222.81284 346.6844ZM230.84409 345.2625Q230.84409 343.1219 231.98471 341.91876Q233.14096 340.7 234.95346 340.7Q236.15659 340.7 237.10971 341.27814Q238.06284 341.84064 238.56284 342.85626Q239.06284 343.8719 239.06284 345.16876Q239.06284 346.46564 238.53159 347.4969Q238.00034 348.52814 237.03159 349.0594Q236.07846 349.59064 234.95346 349.59064Q233.73471 349.59064 232.78159 349.0125Q231.82846 348.41876 231.32846 347.41876Q230.84409 346.40314 230.84409 345.2625ZM232.01596 345.27814Q232.01596 346.84064 232.84409 347.73126Q233.68784 348.6219 234.95346 348.6219Q236.23471 348.6219 237.06284 347.73126Q237.89096 346.825 237.89096 345.15314Q237.89096 344.10626 237.53159 343.325Q237.18784 342.54376 236.50034 342.1219Q235.81284 341.6844 234.96909 341.6844Q233.76596 341.6844 232.89096 342.5125Q232.01596 343.34064 232.01596 345.27814ZM240.18784 349.45L240.18784 340.85626L241.34409 340.85626L245.85971 347.60626L245.85971 340.85626L246.95346 340.85626L246.95346 349.45L245.78159 349.45L241.26596 342.7L241.26596 349.45L240.18784 349.45Z"
          fill-rule="nonzero"/>
    <path fill="#000000"
          d="M413.35904 349.45L413.35904 340.85626L414.48404 340.85626L414.48404 349.45L413.35904 349.45ZM416.0309 349.45L416.0309 343.23126L416.9684 343.23126L416.9684 344.10626Q417.6559 343.09064 418.9528 343.09064Q419.5153 343.09064 419.98404 343.29376Q420.4684 343.4969 420.7028 343.825Q420.93716 344.15314 421.0309 344.59064Q421.0778 344.8875 421.0778 345.6219L421.0778 349.45L420.0309 349.45L420.0309 345.66876Q420.0309 345.0125 419.9059 344.7Q419.7809 344.3875 419.4684 344.2Q419.1559 343.9969 418.73404 343.9969Q418.06216 343.9969 417.56216 344.4344Q417.0778 344.85626 417.0778 346.04376L417.0778 349.45L416.0309 349.45ZM422.60904 346.8719L422.60904 345.8094L425.85904 345.8094L425.85904 346.8719L422.60904 346.8719ZM427.12466 349.45L427.12466 340.85626L428.8434 340.85626L430.87466 346.9344Q431.1559 347.79376 431.2809 348.21564Q431.42154 347.7469 431.73404 346.84064L433.79654 340.85626L435.3278 340.85626L435.3278 349.45L434.23404 349.45L434.23404 342.2625L431.73404 349.45L430.7028 349.45L428.2184 342.1375L428.2184 349.45L427.12466 349.45ZM440.2809 347.45L441.37466 347.575Q441.12466 348.52814 440.42154 349.0594Q439.7184 349.59064 438.6403 349.59064Q437.2809 349.59064 436.4684 348.7469Q435.67154 347.90314 435.67154 346.3875Q435.67154 344.825 436.48404 343.96564Q437.29654 343.09064 438.5778 343.09064Q439.8278 343.09064 440.60904 343.9344Q441.4059 344.77814 441.4059 346.325Q441.4059 346.41876 441.4059 346.60626L436.7653 346.60626Q436.8278 347.6375 437.3434 348.1844Q437.85904 348.71564 438.6403 348.71564Q439.2184 348.71564 439.62466 348.41876Q440.04654 348.10626 440.2809 347.45ZM436.8278 345.7469L440.29654 345.7469Q440.23404 344.95 439.9059 344.5594Q439.3903 343.95 438.5934 343.95Q437.85904 343.95 437.35904 344.4344Q436.87466 344.91876 436.8278 345.7469ZM443.0309 349.45L443.0309 343.23126L443.9684 343.23126L443.9684 344.10626Q444.2653 343.6375 444.74966 343.3719Q445.23404 343.09064 445.85904 343.09064Q446.54654 343.09064 446.98404 343.3719Q447.43716 343.65314 447.60904 344.16876Q448.35904 343.09064 449.5309 343.09064Q450.4684 343.09064 450.9528 343.60626Q451.4528 344.10626 451.4528 345.1844L451.4528 349.45L450.4059 349.45L450.4059 345.52814Q450.4059 344.90314 450.29654 344.6219Q450.2028 344.34064 449.93716 344.16876Q449.67154 343.9969 449.29654 343.9969Q448.6403 343.9969 448.2028 344.4344Q447.7809 344.8719 447.7809 345.84064L447.7809 349.45L446.7184 349.45L446.7184 345.40314Q446.7184 344.7 446.4528 344.35626Q446.2028 343.9969 445.62466 343.9969Q445.17154 343.9969 444.79654 344.23126Q444.42154 344.46564 444.24966 344.91876Q444.0778 345.3719 444.0778 346.21564L444.0778 349.45L443.0309 349.45ZM453.6403 346.34064Q453.6403 344.60626 454.5934 343.77814Q455.3903 343.09064 456.54654 343.09064Q457.8278 343.09064 458.6403 343.9344Q459.4684 344.7625 459.4684 346.2469Q459.4684 347.45 459.10904 348.1375Q458.74966 348.825 458.04654 349.21564Q457.35904 349.59064 456.54654 349.59064Q455.24966 349.59064 454.43716 348.7625Q453.6403 347.91876 453.6403 346.34064ZM454.7184 346.34064Q454.7184 347.52814 455.23404 348.1219Q455.7653 348.71564 456.54654 348.71564Q457.3434 348.71564 457.85904 348.1219Q458.37466 347.52814 458.37466 346.3094Q458.37466 345.15314 457.8434 344.5594Q457.3278 343.96564 456.54654 343.96564Q455.7653 343.96564 455.23404 344.5594Q454.7184 345.1375 454.7184 346.34064ZM461.0153 349.45L461.0153 343.23126L461.9684 343.23126L461.9684 344.16876Q462.3278 343.5125 462.62466 343.3094Q462.93716 343.09064 463.31216 343.09064Q463.8434 343.09064 464.3903 343.41876L464.0309 344.40314Q463.6403 344.16876 463.2653 344.16876Q462.9059 344.16876 462.62466 344.3875Q462.35904 344.59064 462.24966 344.96564Q462.06216 345.52814 462.06216 346.1844L462.06216 349.45L461.0153 349.45ZM464.98404 351.84064L464.85904 350.85626Q465.2028 350.95 465.4684 350.95Q465.81216 350.95 466.0153 350.825Q466.23404 350.71564 466.37466 350.5125Q466.4684 350.34064 466.7028 349.71564Q466.7184 349.6375 466.79654 349.46564L464.42154 343.23126L465.56216 343.23126L466.85904 346.825Q467.10904 347.5125 467.31216 348.27814Q467.49966 347.54376 467.74966 346.85626L469.0778 343.23126L470.12466 343.23126L467.7653 349.5594Q467.37466 350.575 467.17154 350.96564Q466.8903 351.4969 466.5153 351.73126Q466.1559 351.98126 465.6559 351.98126Q465.35904 351.98126 464.98404 351.84064Z"
          fill-rule="nonzero"/>
    <path fill="#4285f4"
          d="M213.0 56.916668C213.0 56.364384 213.44771 55.916668 214.0 55.916668L224.0 55.916668C224.55229 55.916668 225.0 56.364384 225.0 56.916668L225.0 66.916664C225.0 67.46895 224.55229 67.916664 224.0 67.916664L214.0 67.916664C213.44771 67.916664 213.0 67.46895 213.0 66.916664Z"
          fill-rule="nonzero"/>
    <path fill="#1a1a1a"
          d="M237.82812 65.916664L237.82812 65.135414Q237.23438 66.05729 236.09375 66.05729Q235.34375 66.05729 234.71875 65.65104Q234.09375 65.229164 233.75 64.49479Q233.40625 63.760414 233.40625 62.80729Q233.40625 61.885414 233.71875 61.11979Q234.03125 60.354164 234.65625 59.96354Q235.28125 59.55729 236.04688 59.55729Q236.60938 59.55729 237.04688 59.791664Q237.48438 60.02604 237.76562 60.40104L237.76562 57.322914L238.8125 57.322914L238.8125 65.916664L237.82812 65.916664ZM234.5 62.80729Q234.5 64.010414 235.0 64.604164Q235.5 65.18229 236.1875 65.18229Q236.875 65.18229 237.35938 64.61979Q237.84375 64.05729 237.84375 62.90104Q237.84375 61.61979 237.34375 61.02604Q236.85938 60.43229 236.14062 60.43229Q235.4375 60.43229 234.96875 61.010414Q234.5 61.572914 234.5 62.80729ZM240.79688 58.541664L240.79688 57.322914L241.85938 57.322914L241.85938 58.541664L240.79688 58.541664ZM240.79688 65.916664L240.79688 59.697914L241.85938 59.697914L241.85938 65.916664L240.79688 65.916664ZM247.85938 63.635414L248.89062 63.77604Q248.71875 64.83854 248.01562 65.447914Q247.3125 66.05729 246.29688 66.05729Q245.01562 66.05729 244.23438 65.229164Q243.46875 64.385414 243.46875 62.822914Q243.46875 61.822914 243.79688 61.072914Q244.14062 60.30729 244.8125 59.93229Q245.5 59.55729 246.3125 59.55729Q247.3125 59.55729 247.95312 60.072914Q248.60938 60.572914 248.79688 61.52604L247.76562 61.68229Q247.625 61.05729 247.25 60.74479Q246.875 60.416664 246.34375 60.416664Q245.54688 60.416664 245.04688 60.99479Q244.54688 61.55729 244.54688 62.791664Q244.54688 64.05729 245.03125 64.61979Q245.51562 65.18229 246.28125 65.18229Q246.90625 65.18229 247.3125 64.80729Q247.73438 64.43229 247.85938 63.635414ZM252.09375 64.979164L252.25 65.90104Q251.79688 65.99479 251.45312 65.99479Q250.875 65.99479 250.5625 65.822914Q250.25 65.635414 250.10938 65.33854Q249.98438 65.041664 249.98438 64.08854L249.98438 60.510414L249.21875 60.510414L249.21875 59.697914L249.98438 59.697914L249.98438 58.15104L251.03125 57.52604L251.03125 59.697914L252.09375 59.697914L252.09375 60.510414L251.03125 60.510414L251.03125 64.15104Q251.03125 64.604164 251.07812 64.729164Q251.14062 64.854164 251.26562 64.93229Q251.39062 65.010414 251.625 65.010414Q251.8125 65.010414 252.09375 64.979164Z"
          fill-rule="nonzero"/>
    <path fill="#ea4335"
          d="M268.0 56.916668C268.0 56.364384 268.44772 55.916668 269.0 55.916668L279.0 55.916668C279.55228 55.916668 280.0 56.364384 280.0 56.916668L280.0 66.916664C280.0 67.46895 279.55228 67.916664 279.0 67.916664L269.0 67.916664C268.44772 67.916664 268.0 67.46895 268.0 66.916664Z"
          fill-rule="nonzero"/>
    <path fill="#1a1a1a"
          d="M288.92188 65.916664L288.92188 57.322914L291.89062 57.322914Q292.89062 57.322914 293.42188 57.447914Q294.15625 57.61979 294.67188 58.05729Q295.35938 58.635414 295.6875 59.541664Q296.03125 60.43229 296.03125 61.572914Q296.03125 62.55729 295.79688 63.30729Q295.57812 64.05729 295.21875 64.55729Q294.85938 65.05729 294.42188 65.33854Q294.0 65.61979 293.40625 65.77604Q292.8125 65.916664 292.03125 65.916664L288.92188 65.916664ZM290.0625 64.90104L291.89062 64.90104Q292.75 64.90104 293.23438 64.74479Q293.71875 64.58854 294.0 64.291664Q294.40625 63.90104 294.625 63.21354Q294.85938 62.52604 294.85938 61.55729Q294.85938 60.21354 294.40625 59.49479Q293.96875 58.760414 293.34375 58.510414Q292.875 58.33854 291.875 58.33854L290.0625 58.33854L290.0625 64.90104ZM302.04688 63.916664L303.14062 64.041664Q302.89062 64.99479 302.1875 65.52604Q301.48438 66.05729 300.40625 66.05729Q299.04688 66.05729 298.23438 65.21354Q297.4375 64.36979 297.4375 62.854164Q297.4375 61.291664 298.25 60.43229Q299.0625 59.55729 300.34375 59.55729Q301.59375 59.55729 302.375 60.40104Q303.17188 61.24479 303.17188 62.791664Q303.17188 62.885414 303.17188 63.072914L298.53125 63.072914Q298.59375 64.104164 299.10938 64.65104Q299.625 65.18229 300.40625 65.18229Q300.98438 65.18229 301.39062 64.885414Q301.8125 64.572914 302.04688 63.916664ZM298.59375 62.21354L302.0625 62.21354Q302.0 61.416664 301.67188 61.02604Q301.15625 60.416664 300.35938 60.416664Q299.625 60.416664 299.125 60.90104Q298.64062 61.385414 298.59375 62.21354ZM304.92188 65.916664L304.92188 57.322914L307.89062 57.322914Q308.89062 57.322914 309.42188 57.447914Q310.15625 57.61979 310.67188 58.05729Q311.35938 58.635414 311.6875 59.541664Q312.03125 60.43229 312.03125 61.572914Q312.03125 62.55729 311.79688 63.30729Q311.57812 64.05729 311.21875 64.55729Q310.85938 65.05729 310.42188 65.33854Q310.0 65.61979 309.40625 65.77604Q308.8125 65.916664 308.03125 65.916664L304.92188 65.916664ZM306.0625 64.90104L307.89062 64.90104Q308.75 64.90104 309.23438 64.74479Q309.71875 64.58854 310.0 64.291664Q310.40625 63.90104 310.625 63.21354Q310.85938 62.52604 310.85938 61.55729Q310.85938 60.21354 310.40625 59.49479Q309.96875 58.760414 309.34375 58.510414Q308.875 58.33854 307.875 58.33854L306.0625 58.33854L306.0625 64.90104ZM317.875 65.916664L317.875 64.99479Q317.14062 66.05729 315.89062 66.05729Q315.34375 66.05729 314.85938 65.854164Q314.39062 65.635414 314.15625 65.322914Q313.92188 64.99479 313.82812 64.52604Q313.76562 64.229164 313.76562 63.541664L313.76562 59.697914L314.82812 59.697914L314.82812 63.15104Q314.82812 63.96354 314.89062 64.260414Q314.98438 64.666664 315.29688 64.916664Q315.625 65.15104 316.10938 65.15104Q316.57812 65.15104 316.98438 64.916664Q317.40625 64.666664 317.57812 64.24479Q317.76562 63.822914 317.76562 63.02604L317.76562 59.697914L318.8125 59.697914L318.8125 65.916664L317.875 65.916664ZM320.79688 68.30729L320.79688 59.697914L321.75 59.697914L321.75 60.49479Q322.09375 60.02604 322.51562 59.791664Q322.95312 59.55729 323.5625 59.55729Q324.35938 59.55729 324.96875 59.96354Q325.57812 60.36979 325.875 61.11979Q326.1875 61.86979 326.1875 62.760414Q326.1875 63.71354 325.84375 64.479164Q325.51562 65.24479 324.85938 65.65104Q324.20312 66.05729 323.48438 66.05729Q322.95312 66.05729 322.53125 65.83854Q322.10938 65.604164 321.84375 65.27604L321.84375 68.30729L320.79688 68.30729ZM321.75 62.83854Q321.75 64.041664 322.23438 64.61979Q322.71875 65.18229 323.40625 65.18229Q324.10938 65.18229 324.60938 64.58854Q325.10938 63.99479 325.10938 62.74479Q325.10938 61.55729 324.625 60.979164Q324.14062 60.385414 323.45312 60.385414Q322.78125 60.385414 322.26562 61.010414Q321.75 61.635414 321.75 62.83854ZM327.76562 65.916664L327.76562 57.322914L328.82812 57.322914L328.82812 65.916664L327.76562 65.916664ZM330.79688 58.541664L330.79688 57.322914L331.85938 57.322914L331.85938 58.541664L330.79688 58.541664ZM330.79688 65.916664L330.79688 59.697914L331.85938 59.697914L331.85938 65.916664L330.79688 65.916664ZM337.85938 63.635414L338.89062 63.77604Q338.71875 64.83854 338.01562 65.447914Q337.3125 66.05729 336.29688 66.05729Q335.01562 66.05729 334.23438 65.229164Q333.46875 64.385414 333.46875 62.822914Q333.46875 61.822914 333.79688 61.072914Q334.14062 60.30729 334.8125 59.93229Q335.5 59.55729 336.3125 59.55729Q337.3125 59.55729 337.95312 60.072914Q338.60938 60.572914 338.79688 61.52604L337.76562 61.68229Q337.625 61.05729 337.25 60.74479Q336.875 60.416664 336.34375 60.416664Q335.54688 60.416664 335.04688 60.99479Q334.54688 61.55729 334.54688 62.791664Q334.54688 64.05729 335.03125 64.61979Q335.51562 65.18229 336.28125 65.18229Q336.90625 65.18229 337.3125 64.80729Q337.73438 64.43229 337.85938 63.635414ZM343.85938 65.15104Q343.26562 65.65104 342.71875 65.854164Q342.1875 66.05729 341.5625 66.05729Q340.53125 66.05729 339.98438 65.55729Q339.4375 65.05729 339.4375 64.27604Q339.4375 63.822914 339.64062 63.447914Q339.84375 63.05729 340.1875 62.83854Q340.53125 62.604164 340.95312 62.49479Q341.25 62.40104 341.89062 62.322914Q343.15625 62.18229 343.76562 61.96354Q343.76562 61.74479 343.76562 61.697914Q343.76562 61.041664 343.46875 60.77604Q343.0625 60.43229 342.26562 60.43229Q341.53125 60.43229 341.17188 60.697914Q340.8125 60.947914 340.64062 61.604164L339.60938 61.46354Q339.75 60.80729 340.07812 60.40104Q340.40625 59.99479 341.01562 59.77604Q341.625 59.55729 342.42188 59.55729Q343.21875 59.55729 343.71875 59.74479Q344.21875 59.93229 344.45312 60.21354Q344.6875 60.49479 344.78125 60.93229Q344.82812 61.197914 344.82812 61.90104L344.82812 63.30729Q344.82812 64.77604 344.89062 65.166664Q344.96875 65.55729 345.17188 65.916664L344.0625 65.916664Q343.90625 65.58854 343.85938 65.15104ZM343.76562 62.791664Q343.1875 63.02604 342.04688 63.197914Q341.39062 63.291664 341.125 63.416664Q340.85938 63.52604 340.70312 63.74479Q340.5625 63.96354 340.5625 64.24479Q340.5625 64.666664 340.875 64.947914Q341.20312 65.229164 341.8125 65.229164Q342.42188 65.229164 342.89062 64.96354Q343.375 64.697914 343.59375 64.229164Q343.76562 63.86979 343.76562 63.18229L343.76562 62.791664ZM349.09375 64.979164L349.25 65.90104Q348.79688 65.99479 348.45312 65.99479Q347.875 65.99479 347.5625 65.822914Q347.25 65.635414 347.10938 65.33854Q346.98438 65.041664 346.98438 64.08854L346.98438 60.510414L346.21875 60.510414L346.21875 59.697914L346.98438 59.697914L346.98438 58.15104L348.03125 57.52604L348.03125 59.697914L349.09375 59.697914L349.09375 60.510414L348.03125 60.510414L348.03125 64.15104Q348.03125 64.604164 348.07812 64.729164Q348.14062 64.854164 348.26562 64.93229Q348.39062 65.010414 348.625 65.010414Q348.8125 65.010414 349.09375 64.979164ZM349.79688 58.541664L349.79688 57.322914L350.85938 57.322914L350.85938 58.541664L349.79688 58.541664ZM349.79688 65.916664L349.79688 59.697914L350.85938 59.697914L350.85938 65.916664L349.79688 65.916664ZM352.40625 62.80729Q352.40625 61.072914 353.35938 60.24479Q354.15625 59.55729 355.3125 59.55729Q356.59375 59.55729 357.40625 60.40104Q358.23438 61.229164 358.23438 62.71354Q358.23438 63.916664 357.875 64.604164Q357.51562 65.291664 356.8125 65.68229Q356.125 66.05729 355.3125 66.05729Q354.01562 66.05729 353.20312 65.229164Q352.40625 64.385414 352.40625 62.80729ZM353.48438 62.80729Q353.48438 63.99479 354.0 64.58854Q354.53125 65.18229 355.3125 65.18229Q356.10938 65.18229 356.625 64.58854Q357.14062 63.99479 357.14062 62.77604Q357.14062 61.61979 356.60938 61.02604Q356.09375 60.43229 355.3125 60.43229Q354.53125 60.43229 354.0 61.02604Q353.48438 61.604164 353.48438 62.80729ZM359.79688 65.916664L359.79688 59.697914L360.73438 59.697914L360.73438 60.572914Q361.42188 59.55729 362.71875 59.55729Q363.28125 59.55729 363.75 59.760414Q364.23438 59.96354 364.46875 60.291664Q364.70312 60.61979 364.79688 61.05729Q364.84375 61.354164 364.84375 62.08854L364.84375 65.916664L363.79688 65.916664L363.79688 62.135414Q363.79688 61.479164 363.67188 61.166664Q363.54688 60.854164 363.23438 60.666664Q362.92188 60.46354 362.5 60.46354Q361.82812 60.46354 361.32812 60.90104Q360.84375 61.322914 360.84375 62.510414L360.84375 65.916664L359.79688 65.916664ZM366.92188 65.916664L366.92188 57.322914L369.89062 57.322914Q370.89062 57.322914 371.42188 57.447914Q372.15625 57.61979 372.67188 58.05729Q373.35938 58.635414 373.6875 59.541664Q374.03125 60.43229 374.03125 61.572914Q374.03125 62.55729 373.79688 63.30729Q373.57812 64.05729 373.21875 64.55729Q372.85938 65.05729 372.42188 65.33854Q372.0 65.61979 371.40625 65.77604Q370.8125 65.916664 370.03125 65.916664L366.92188 65.916664ZM368.0625 64.90104L369.89062 64.90104Q370.75 64.90104 371.23438 64.74479Q371.71875 64.58854 372.0 64.291664Q372.40625 63.90104 372.625 63.21354Q372.85938 62.52604 372.85938 61.55729Q372.85938 60.21354 372.40625 59.49479Q371.96875 58.760414 371.34375 58.510414Q370.875 58.33854 369.875 58.33854L368.0625 58.33854L368.0625 64.90104ZM375.79688 58.541664L375.79688 57.322914L376.85938 57.322914L376.85938 58.541664L375.79688 58.541664ZM375.79688 65.916664L375.79688 59.697914L376.85938 59.697914L376.85938 65.916664L375.79688 65.916664ZM382.85938 63.635414L383.89062 63.77604Q383.71875 64.83854 383.01562 65.447914Q382.3125 66.05729 381.29688 66.05729Q380.01562 66.05729 379.23438 65.229164Q378.46875 64.385414 378.46875 62.822914Q378.46875 61.822914 378.79688 61.072914Q379.14062 60.30729 379.8125 59.93229Q380.5 59.55729 381.3125 59.55729Q382.3125 59.55729 382.95312 60.072914Q383.60938 60.572914 383.79688 61.52604L382.76562 61.68229Q382.625 61.05729 382.25 60.74479Q381.875 60.416664 381.34375 60.416664Q380.54688 60.416664 380.04688 60.99479Q379.54688 61.55729 379.54688 62.791664Q379.54688 64.05729 380.03125 64.61979Q380.51562 65.18229 381.28125 65.18229Q381.90625 65.18229 382.3125 64.80729Q382.73438 64.43229 382.85938 63.635414ZM387.09375 64.979164L387.25 65.90104Q386.79688 65.99479 386.45312 65.99479Q385.875 65.99479 385.5625 65.822914Q385.25 65.635414 385.10938 65.33854Q384.98438 65.041664 384.98438 64.08854L384.98438 60.510414L384.21875 60.510414L384.21875 59.697914L384.98438 59.697914L384.98438 58.15104L386.03125 57.52604L386.03125 59.697914L387.09375 59.697914L387.09375 60.510414L386.03125 60.510414L386.03125 64.15104Q386.03125 64.604164 386.07812 64.729164Q386.14062 64.854164 386.26562 64.93229Q386.39062 65.010414 386.625 65.010414Q386.8125 65.010414 387.09375 64.979164Z"
          fill-rule="nonzero"/>
    <path fill="#757575"
          d="M160.54688 37.55L160.54688 23.2375L165.9375 23.2375Q167.375 23.2375 168.125 23.3625Q169.17188 23.55 169.89062 24.05Q170.60938 24.534374 171.03125 25.425Q171.46875 26.315624 171.46875 27.378124Q171.46875 29.20625 170.29688 30.471874Q169.14062 31.721874 166.10938 31.721874L162.4375 31.721874L162.4375 37.55L160.54688 37.55ZM162.4375 30.034374L166.14062 30.034374Q167.96875 30.034374 168.73438 29.3625Q169.51562 28.675 169.51562 27.425Q169.51562 26.534374 169.0625 25.89375Q168.60938 25.253124 167.875 25.05Q167.39062 24.925 166.09375 24.925L162.4375 24.925L162.4375 30.034374ZM173.23438 41.55L173.04688 39.89375Q173.625 40.05 174.04688 40.05Q174.64062 40.05 174.98438 39.846874Q175.34375 39.659374 175.5625 39.315624Q175.73438 39.05 176.10938 38.003124Q176.15625 37.846874 176.26562 37.565624L172.32812 27.175L174.21875 27.175L176.375 33.190624Q176.79688 34.33125 177.125 35.58125Q177.4375 34.378124 177.84375 33.221874L180.0625 27.175L181.82812 27.175L177.875 37.721874Q177.25 39.440624 176.89062 40.08125Q176.42188 40.95625 175.8125 41.346874Q175.21875 41.753124 174.375 41.753124Q173.85938 41.753124 173.23438 41.55ZM187.15625 35.971874L187.40625 37.534374Q186.67188 37.690624 186.07812 37.690624Q185.125 37.690624 184.59375 37.39375Q184.07812 37.08125 183.85938 36.596874Q183.64062 36.096874 183.64062 34.51875L183.64062 28.55L182.35938 28.55L182.35938 27.175L183.64062 27.175L183.64062 24.6125L185.39062 23.55L185.39062 27.175L187.15625 27.175L187.15625 28.55L185.39062 28.55L185.39062 34.6125Q185.39062 35.3625 185.48438 35.58125Q185.57812 35.784374 185.78125 35.925Q186.0 36.05 186.39062 36.05Q186.67188 36.05 187.15625 35.971874ZM189.3125 37.55L189.3125 23.2375L191.07812 23.2375L191.07812 28.3625Q192.3125 26.940624 194.1875 26.940624Q195.32812 26.940624 196.17188 27.39375Q197.03125 27.846874 197.39062 28.659374Q197.76562 29.45625 197.76562 30.971874L197.76562 37.55L196.01562 37.55L196.01562 30.971874Q196.01562 29.659374 195.4375 29.065624Q194.85938 28.45625 193.82812 28.45625Q193.04688 28.45625 192.34375 28.8625Q191.65625 29.26875 191.35938 29.971874Q191.07812 30.659374 191.07812 31.878124L191.07812 37.55L189.3125 37.55ZM198.67188 32.3625Q198.67188 29.4875 200.26562 28.096874Q201.60938 26.940624 203.53125 26.940624Q205.67188 26.940624 207.01562 28.346874Q208.375 29.753124 208.375 32.221874Q208.375 34.221874 207.78125 35.378124Q207.1875 36.51875 206.03125 37.159374Q204.89062 37.784374 203.53125 37.784374Q201.34375 37.784374 200.0 36.39375Q198.67188 34.9875 198.67188 32.3625ZM200.46875 32.3625Q200.46875 34.3625 201.32812 35.346874Q202.20312 36.33125 203.53125 36.33125Q204.84375 36.33125 205.70312 35.346874Q206.57812 34.346874 206.57812 32.3Q206.57812 30.378124 205.70312 29.39375Q204.82812 28.39375 203.53125 28.39375Q202.20312 28.39375 201.32812 29.39375Q200.46875 30.378124 200.46875 32.3625ZM210.3125 37.55L210.3125 27.175L211.90625 27.175L211.90625 28.659374Q213.04688 26.940624 215.20312 26.940624Q216.14062 26.940624 216.92188 27.284374Q217.71875 27.6125 218.10938 28.159374Q218.5 28.70625 218.65625 29.45625Q218.75 29.95625 218.75 31.175L218.75 37.55L216.98438 37.55L216.98438 31.2375Q216.98438 30.159374 216.78125 29.628124Q216.57812 29.096874 216.04688 28.784374Q215.53125 28.471874 214.82812 28.471874Q213.70312 28.471874 212.89062 29.190624Q212.07812 29.89375 212.07812 31.878124L212.07812 37.55L210.3125 37.55ZM233.04688 37.55L233.04688 36.2375Q232.0625 37.784374 230.14062 37.784374Q228.90625 37.784374 227.85938 37.096874Q226.82812 36.409374 226.25 35.190624Q225.6875 33.971874 225.6875 32.378124Q225.6875 30.815624 226.20312 29.55Q226.71875 28.284374 227.75 27.6125Q228.79688 26.940624 230.0625 26.940624Q231.0 26.940624 231.73438 27.346874Q232.46875 27.7375 232.9375 28.3625L232.9375 23.2375L234.67188 23.2375L234.67188 37.55L233.04688 37.55ZM227.48438 32.378124Q227.48438 34.3625 228.32812 35.346874Q229.17188 36.33125 230.3125 36.33125Q231.46875 36.33125 232.26562 35.39375Q233.07812 34.45625 233.07812 32.51875Q233.07812 30.39375 232.25 29.39375Q231.4375 28.39375 230.23438 28.39375Q229.0625 28.39375 228.26562 29.3625Q227.48438 30.315624 227.48438 32.378124ZM237.32812 25.253124L237.32812 23.2375L239.09375 23.2375L239.09375 25.253124L237.32812 25.253124ZM237.32812 37.55L237.32812 27.175L239.09375 27.175L239.09375 37.55L237.32812 37.55ZM248.09375 33.753124L249.8125 33.971874Q249.53125 35.76875 248.35938 36.784374Q247.20312 37.784374 245.5 37.784374Q243.375 37.784374 242.07812 36.39375Q240.78125 35.003124 240.78125 32.409374Q240.78125 30.721874 241.32812 29.471874Q241.89062 28.20625 243.03125 27.58125Q244.17188 26.940624 245.51562 26.940624Q247.20312 26.940624 248.26562 27.8Q249.34375 28.659374 249.65625 30.221874L247.9375 30.4875Q247.70312 29.440624 247.07812 28.925Q246.45312 28.39375 245.57812 28.39375Q244.25 28.39375 243.42188 29.346874Q242.59375 30.3 242.59375 32.346874Q242.59375 34.440624 243.39062 35.39375Q244.1875 36.33125 245.48438 36.33125Q246.51562 36.33125 247.20312 35.70625Q247.90625 35.065624 248.09375 33.753124ZM255.15625 35.971874L255.40625 37.534374Q254.67188 37.690624 254.07812 37.690624Q253.125 37.690624 252.59375 37.39375Q252.07812 37.08125 251.85938 36.596874Q251.64062 36.096874 251.64062 34.51875L251.64062 28.55L250.35938 28.55L250.35938 27.175L251.64062 27.175L251.64062 24.6125L253.39062 23.55L253.39062 27.175L255.15625 27.175L255.15625 28.55L253.39062 28.55L253.39062 34.6125Q253.39062 35.3625 253.48438 35.58125Q253.57812 35.784374 253.78125 35.925Q254.0 36.05 254.39062 36.05Q254.67188 36.05 255.15625 35.971874ZM266.20312 37.55L262.25 27.175L264.10938 27.175L266.34375 33.39375Q266.70312 34.39375 267.0 35.471874Q267.23438 34.659374 267.65625 33.503124L269.95312 27.175L271.76562 27.175L267.84375 37.55L266.20312 37.55ZM271.60938 34.45625L273.35938 34.175Q273.5 35.221874 274.17188 35.784374Q274.84375 36.33125 276.04688 36.33125Q277.25 36.33125 277.82812 35.846874Q278.42188 35.346874 278.42188 34.690624Q278.42188 34.096874 277.90625 33.753124Q277.54688 33.51875 276.10938 33.159374Q274.17188 32.659374 273.42188 32.315624Q272.6875 31.95625 272.29688 31.33125Q271.90625 30.690624 271.90625 29.925Q271.90625 29.2375 272.21875 28.64375Q272.54688 28.05 273.09375 27.659374Q273.5 27.3625 274.20312 27.159374Q274.92188 26.940624 275.73438 26.940624Q276.95312 26.940624 277.875 27.3Q278.79688 27.64375 279.23438 28.253124Q279.67188 28.846874 279.84375 29.846874L278.125 30.08125Q278.0 29.284374 277.4375 28.846874Q276.875 28.39375 275.85938 28.39375Q274.64062 28.39375 274.125 28.8Q273.60938 29.190624 273.60938 29.721874Q273.60938 30.065624 273.82812 30.346874Q274.03125 30.628124 274.5 30.815624Q274.76562 30.909374 276.04688 31.253124Q277.92188 31.753124 278.65625 32.08125Q279.39062 32.39375 279.8125 33.003124Q280.23438 33.596874 280.23438 34.503124Q280.23438 35.378124 279.71875 36.159374Q279.20312 36.940624 278.23438 37.3625Q277.26562 37.784374 276.04688 37.784374Q274.03125 37.784374 272.96875 36.940624Q271.90625 36.096874 271.60938 34.45625ZM288.54688 37.55L288.54688 23.2375L293.46875 23.2375Q295.14062 23.2375 296.03125 23.440624Q297.25 23.721874 298.125 24.45625Q299.25 25.425 299.8125 26.909374Q300.375 28.39375 300.375 30.315624Q300.375 31.940624 300.0 33.20625Q299.625 34.45625 299.01562 35.284374Q298.42188 36.1125 297.71875 36.596874Q297.01562 37.065624 296.01562 37.315624Q295.01562 37.55 293.70312 37.55L288.54688 37.55ZM290.4375 35.8625L293.5 35.8625Q294.90625 35.8625 295.70312 35.596874Q296.51562 35.33125 297.0 34.846874Q297.67188 34.175 298.04688 33.05Q298.42188 31.909374 298.42188 30.284374Q298.42188 28.034374 297.6875 26.83125Q296.95312 25.628124 295.89062 25.221874Q295.14062 24.925 293.45312 24.925L290.4375 24.925L290.4375 35.8625ZM309.42188 34.20625L311.23438 34.440624Q310.8125 36.01875 309.64062 36.909374Q308.48438 37.784374 306.67188 37.784374Q304.40625 37.784374 303.0625 36.39375Q301.73438 34.9875 301.73438 32.45625Q301.73438 29.83125 303.07812 28.39375Q304.42188 26.940624 306.57812 26.940624Q308.65625 26.940624 309.96875 28.3625Q311.29688 29.76875 311.29688 32.346874Q311.29688 32.503124 311.28125 32.815624L303.54688 32.815624Q303.64062 34.51875 304.51562 35.425Q305.39062 36.33125 306.6875 36.33125Q307.65625 36.33125 308.32812 35.83125Q309.01562 35.315624 309.42188 34.20625ZM303.64062 31.3625L309.4375 31.3625Q309.32812 30.065624 308.78125 29.409374Q307.9375 28.39375 306.59375 28.39375Q305.39062 28.39375 304.5625 29.20625Q303.73438 30.003124 303.64062 31.3625ZM313.54688 37.55L313.54688 23.2375L318.46875 23.2375Q320.14062 23.2375 321.03125 23.440624Q322.25 23.721874 323.125 24.45625Q324.25 25.425 324.8125 26.909374Q325.375 28.39375 325.375 30.315624Q325.375 31.940624 325.0 33.20625Q324.625 34.45625 324.01562 35.284374Q323.42188 36.1125 322.71875 36.596874Q322.01562 37.065624 321.01562 37.315624Q320.01562 37.55 318.70312 37.55L313.54688 37.55ZM315.4375 35.8625L318.5 35.8625Q319.90625 35.8625 320.70312 35.596874Q321.51562 35.33125 322.0 34.846874Q322.67188 34.175 323.04688 33.05Q323.42188 31.909374 323.42188 30.284374Q323.42188 28.034374 322.6875 26.83125Q321.95312 25.628124 320.89062 25.221874Q320.14062 24.925 318.45312 24.925L315.4375 24.925L315.4375 35.8625ZM334.10938 37.55L334.10938 36.01875Q332.90625 37.784374 330.82812 37.784374Q329.90625 37.784374 329.10938 37.440624Q328.3125 37.08125 327.92188 36.55Q327.54688 36.01875 327.39062 35.2375Q327.28125 34.721874 327.28125 33.596874L327.28125 27.175L329.03125 27.175L329.03125 32.925Q329.03125 34.3 329.14062 34.784374Q329.3125 35.471874 329.84375 35.878124Q330.39062 36.26875 331.17188 36.26875Q331.96875 36.26875 332.65625 35.8625Q333.35938 35.45625 333.64062 34.76875Q333.9375 34.065624 333.9375 32.7375L333.9375 27.175L335.6875 27.175L335.6875 37.55L334.10938 37.55ZM337.3125 41.51875L337.3125 27.175L338.92188 27.175L338.92188 28.51875Q339.48438 27.7375 340.1875 27.346874Q340.90625 26.940624 341.92188 26.940624Q343.25 26.940624 344.26562 27.628124Q345.28125 28.315624 345.79688 29.565624Q346.32812 30.8 346.32812 32.284374Q346.32812 33.878124 345.75 35.159374Q345.1875 36.425 344.09375 37.1125Q343.0 37.784374 341.79688 37.784374Q340.92188 37.784374 340.21875 37.409374Q339.53125 37.034374 339.07812 36.471874L339.07812 41.51875L337.3125 41.51875ZM338.90625 32.425Q338.90625 34.425 339.71875 35.378124Q340.53125 36.33125 341.6875 36.33125Q342.85938 36.33125 343.6875 35.346874Q344.53125 34.3625 344.53125 32.26875Q344.53125 30.3 343.70312 29.315624Q342.89062 28.315624 341.76562 28.315624Q340.64062 28.315624 339.76562 29.378124Q338.90625 30.425 338.90625 32.425ZM348.28125 37.55L348.28125 23.2375L350.03125 23.2375L350.03125 37.55L348.28125 37.55ZM352.32812 25.253124L352.32812 23.2375L354.09375 23.2375L354.09375 25.253124L352.32812 25.253124ZM352.32812 37.55L352.32812 27.175L354.09375 27.175L354.09375 37.55L352.32812 37.55ZM363.09375 33.753124L364.8125 33.971874Q364.53125 35.76875 363.35938 36.784374Q362.20312 37.784374 360.5 37.784374Q358.375 37.784374 357.07812 36.39375Q355.78125 35.003124 355.78125 32.409374Q355.78125 30.721874 356.32812 29.471874Q356.89062 28.20625 358.03125 27.58125Q359.17188 26.940624 360.51562 26.940624Q362.20312 26.940624 363.26562 27.8Q364.34375 28.659374 364.65625 30.221874L362.9375 30.4875Q362.70312 29.440624 362.07812 28.925Q361.45312 28.39375 360.57812 28.39375Q359.25 28.39375 358.42188 29.346874Q357.59375 30.3 357.59375 32.346874Q357.59375 34.440624 358.39062 35.39375Q359.1875 36.33125 360.48438 36.33125Q361.51562 36.33125 362.20312 35.70625Q362.90625 35.065624 363.09375 33.753124ZM373.09375 36.26875Q372.10938 37.096874 371.20312 37.440624Q370.29688 37.784374 369.26562 37.784374Q367.5625 37.784374 366.64062 36.95625Q365.71875 36.1125 365.71875 34.815624Q365.71875 34.05 366.0625 33.425Q366.42188 32.8 366.98438 32.425Q367.54688 32.034374 368.25 31.83125Q368.76562 31.70625 369.8125 31.565624Q371.9375 31.315624 372.9375 30.971874Q372.95312 30.6125 372.95312 30.503124Q372.95312 29.440624 372.45312 28.9875Q371.78125 28.39375 370.45312 28.39375Q369.20312 28.39375 368.60938 28.83125Q368.03125 29.26875 367.75 30.378124L366.03125 30.14375Q366.26562 29.034374 366.79688 28.3625Q367.32812 27.675 368.34375 27.315624Q369.35938 26.940624 370.70312 26.940624Q372.03125 26.940624 372.85938 27.253124Q373.6875 27.565624 374.07812 28.05Q374.46875 28.51875 374.625 29.2375Q374.71875 29.690624 374.71875 30.8625L374.71875 33.20625Q374.71875 35.659374 374.82812 36.315624Q374.9375 36.95625 375.28125 37.55L373.4375 37.55Q373.17188 37.003124 373.09375 36.26875ZM372.9375 32.346874Q371.98438 32.7375 370.0625 33.003124Q368.98438 33.159374 368.53125 33.3625Q368.09375 33.55 367.84375 33.925Q367.59375 34.3 367.59375 34.76875Q367.59375 35.471874 368.125 35.940624Q368.65625 36.409374 369.6875 36.409374Q370.70312 36.409374 371.48438 35.971874Q372.28125 35.51875 372.65625 34.753124Q372.9375 34.14375 372.9375 32.9875L372.9375 32.346874ZM381.15625 35.971874L381.40625 37.534374Q380.67188 37.690624 380.07812 37.690624Q379.125 37.690624 378.59375 37.39375Q378.07812 37.08125 377.85938 36.596874Q377.64062 36.096874 377.64062 34.51875L377.64062 28.55L376.35938 28.55L376.35938 27.175L377.64062 27.175L377.64062 24.6125L379.39062 23.55L379.39062 27.175L381.15625 27.175L381.15625 28.55L379.39062 28.55L379.39062 34.6125Q379.39062 35.3625 379.48438 35.58125Q379.57812 35.784374 379.78125 35.925Q380.0 36.05 380.39062 36.05Q380.67188 36.05 381.15625 35.971874ZM383.32812 25.253124L383.32812 23.2375L385.09375 23.2375L385.09375 25.253124L383.32812 25.253124ZM383.32812 37.55L383.32812 27.175L385.09375 27.175L385.09375 37.55L383.32812 37.55ZM386.67188 32.3625Q386.67188 29.4875 388.26562 28.096874Q389.60938 26.940624 391.53125 26.940624Q393.67188 26.940624 395.01562 28.346874Q396.375 29.753124 396.375 32.221874Q396.375 34.221874 395.78125 35.378124Q395.1875 36.51875 394.03125 37.159374Q392.89062 37.784374 391.53125 37.784374Q389.34375 37.784374 388.0 36.39375Q386.67188 34.9875 386.67188 32.3625ZM388.46875 32.3625Q388.46875 34.3625 389.32812 35.346874Q390.20312 36.33125 391.53125 36.33125Q392.84375 36.33125 393.70312 35.346874Q394.57812 34.346874 394.57812 32.3Q394.57812 30.378124 393.70312 29.39375Q392.82812 28.39375 391.53125 28.39375Q390.20312 28.39375 389.32812 29.39375Q388.46875 30.378124 388.46875 32.3625ZM398.3125 37.55L398.3125 27.175L399.90625 27.175L399.90625 28.659374Q401.04688 26.940624 403.20312 26.940624Q404.14062 26.940624 404.92188 27.284374Q405.71875 27.6125 406.10938 28.159374Q406.5 28.70625 406.65625 29.45625Q406.75 29.95625 406.75 31.175L406.75 37.55L404.98438 37.55L404.98438 31.2375Q404.98438 30.159374 404.78125 29.628124Q404.57812 29.096874 404.04688 28.784374Q403.53125 28.471874 402.82812 28.471874Q401.70312 28.471874 400.89062 29.190624Q400.07812 29.89375 400.07812 31.878124L400.07812 37.55L398.3125 37.55ZM408.54688 37.55L408.54688 23.2375L413.46875 23.2375Q415.14062 23.2375 416.03125 23.440624Q417.25 23.721874 418.125 24.45625Q419.25 25.425 419.8125 26.909374Q420.375 28.39375 420.375 30.315624Q420.375 31.940624 420.0 33.20625Q419.625 34.45625 419.01562 35.284374Q418.42188 36.1125 417.71875 36.596874Q417.01562 37.065624 416.01562 37.315624Q415.01562 37.55 413.70312 37.55L408.54688 37.55ZM410.4375 35.8625L413.5 35.8625Q414.90625 35.8625 415.70312 35.596874Q416.51562 35.33125 417.0 34.846874Q417.67188 34.175 418.04688 33.05Q418.42188 31.909374 418.42188 30.284374Q418.42188 28.034374 417.6875 26.83125Q416.95312 25.628124 415.89062 25.221874Q415.14062 24.925 413.45312 24.925L410.4375 24.925L410.4375 35.8625ZM422.32812 25.253124L422.32812 23.2375L424.09375 23.2375L424.09375 25.253124L422.32812 25.253124ZM422.32812 37.55L422.32812 27.175L424.09375 27.175L424.09375 37.55L422.32812 37.55ZM433.09375 33.753124L434.8125 33.971874Q434.53125 35.76875 433.35938 36.784374Q432.20312 37.784374 430.5 37.784374Q428.375 37.784374 427.07812 36.39375Q425.78125 35.003124 425.78125 32.409374Q425.78125 30.721874 426.32812 29.471874Q426.89062 28.20625 428.03125 27.58125Q429.17188 26.940624 430.51562 26.940624Q432.20312 26.940624 433.26562 27.8Q434.34375 28.659374 434.65625 30.221874L432.9375 30.4875Q432.70312 29.440624 432.07812 28.925Q431.45312 28.39375 430.57812 28.39375Q429.25 28.39375 428.42188 29.346874Q427.59375 30.3 427.59375 32.346874Q427.59375 34.440624 428.39062 35.39375Q429.1875 36.33125 430.48438 36.33125Q431.51562 36.33125 432.20312 35.70625Q432.90625 35.065624 433.09375 33.753124ZM440.15625 35.971874L440.40625 37.534374Q439.67188 37.690624 439.07812 37.690624Q438.125 37.690624 437.59375 37.39375Q437.07812 37.08125 436.85938 36.596874Q436.64062 36.096874 436.64062 34.51875L436.64062 28.55L435.35938 28.55L435.35938 27.175L436.64062 27.175L436.64062 24.6125L438.39062 23.55L438.39062 27.175L440.15625 27.175L440.15625 28.55L438.39062 28.55L438.39062 34.6125Q438.39062 35.3625 438.48438 35.58125Q438.57812 35.784374 438.78125 35.925Q439.0 36.05 439.39062 36.05Q439.67188 36.05 440.15625 35.971874Z"
          fill-rule="nonzero"/>
</svg>